# Blender v2.76 (sub 0) OBJ File: 'Morphy.blend1'
# www.blender.org
mtllib Morphy.mtl
o Morphy_Cylinder
v 0.000000 0.000000 -0.500000
v -0.024999 1.000000 0.043301
v 0.475500 0.000000 -0.154508
v -0.048904 1.000000 -0.010396
v 0.293875 0.000000 0.404509
v -0.005226 1.000000 -0.049726
v -0.293875 0.000000 0.404508
v 0.045675 1.000000 -0.020337
v -0.475500 0.000000 -0.154509
v 0.033455 1.000000 0.037157
v 0.000000 0.050000 -0.500000
v -0.000000 0.100000 -0.250000
v -0.049997 0.575000 -0.086603
v -0.242473 0.700000 -0.140000
v -0.049997 0.800000 -0.000000
v -0.144185 0.937500 0.083250
v -0.123726 0.937500 -0.111410
v -0.015450 0.800000 -0.047553
v 0.058212 0.700000 -0.273881
v 0.066909 0.575000 -0.074314
v 0.237750 0.100000 -0.077254
v 0.475500 0.050000 -0.154508
v 0.067718 0.937500 -0.152105
v 0.040448 0.800000 -0.029389
v 0.278450 0.700000 -0.029268
v 0.091349 0.575000 0.040674
v 0.146938 0.100000 0.202254
v 0.293875 0.050000 0.404509
v 0.165578 0.937500 0.017404
v 0.040448 0.800000 0.029389
v 0.113879 0.700000 0.255793
v -0.010452 0.575000 0.099452
v -0.146938 0.100000 0.202254
v -0.293875 0.050000 0.404508
v 0.034615 0.937500 0.162862
v -0.015450 0.800000 0.047553
v -0.208068 0.700000 0.187357
v -0.097809 0.575000 0.020791
v -0.237750 0.100000 -0.077254
v -0.475500 0.050000 -0.154509
vn 0.000000 1.000000 0.000000
vn 0.000000 -1.000000 0.000000
vn -0.951100 0.000000 0.309000
vn -0.228300 0.970800 0.074200
vn -0.587800 0.000000 -0.809000
vn -0.141100 0.970800 -0.194200
vn -0.200300 0.870400 -0.449800
vn -0.313400 0.921900 -0.227700
vn -0.000000 0.000000 1.000000
vn -0.000000 0.970800 0.240000
vn -0.489600 0.870400 0.051500
vn -0.313400 0.921900 0.227700
vn -0.598300 -0.673100 0.434700
vn -0.346000 -0.525700 0.777100
vn 0.951100 0.000000 0.309000
vn 0.228300 0.970800 0.074200
vn 0.228600 -0.673100 0.703400
vn 0.632200 -0.525700 0.569200
vn 0.739600 -0.673100 0.000000
vn 0.736700 -0.525700 -0.425300
vn 0.587800 0.000000 -0.809000
vn 0.141100 0.970800 -0.194200
vn 0.228600 -0.673100 -0.703400
vn -0.176900 -0.525700 -0.832100
vn -0.598400 -0.673100 -0.434700
vn -0.846000 -0.525700 -0.088900
vn -0.299000 0.894600 -0.332100
vn -0.123200 0.805600 -0.579600
vn 0.223400 0.894600 -0.387000
vn 0.513100 0.805600 -0.296200
vn 0.437100 0.894600 0.092900
vn 0.440300 0.805600 0.396500
vn 0.046700 0.894600 0.444400
vn -0.241000 0.805600 0.541300
vn -0.408200 0.894600 0.181700
vn -0.589300 0.805600 -0.061900
vn 0.119700 0.921900 -0.368400
vn 0.365900 0.870400 -0.329400
vn 0.387400 0.921900 0.000000
vn 0.426400 0.870400 0.246200
vn 0.119700 0.921900 0.368400
vn -0.102400 0.870400 0.481600
vn -0.145800 -0.712900 0.685900
vn -0.357800 -0.845100 0.397300
vn -0.697400 -0.712900 0.073300
vn -0.488500 -0.845000 -0.217500
vn -0.285200 -0.712900 -0.640600
vn 0.055900 -0.845100 -0.531700
vn 0.521200 -0.712900 -0.469200
vn 0.523000 -0.845000 -0.111200
vn 0.607300 -0.712900 0.350600
vn 0.267400 -0.845100 0.463000
vn 0.471500 0.333000 0.816600
vn 0.000000 0.211500 0.977400
vn -0.631000 0.333000 0.700700
vn -0.929500 0.211500 0.302000
vn -0.861400 0.332900 -0.383500
vn -0.574500 0.211500 -0.790700
vn 0.098600 0.333000 -0.937800
vn 0.574500 0.211500 -0.790700
vn 0.922300 0.332900 -0.196000
vn 0.929500 0.211500 0.302000
usemtl None
s off
f 4//1 2//1 10//1 8//1 6//1
f 1//2 3//2 5//2 7//2 9//2
f 7//3 34//3 40//3 9//3
f 34//4 33//4 39//4 40//4
f 9//5 40//5 11//5 1//5
f 40//6 39//6 12//6 11//6
f 18//7 19//7 14//7
f 15//8 18//8 14//8
f 5//9 28//9 34//9 7//9
f 28//10 27//10 33//10 34//10
f 14//11 37//11 15//11
f 37//12 36//12 15//12
f 15//13 36//13 16//13
f 36//14 35//14 16//14
f 3//15 22//15 28//15 5//15
f 22//16 21//16 27//16 28//16
f 35//17 36//17 30//17
f 30//18 29//18 35//18
f 29//19 30//19 24//19
f 24//20 23//20 29//20
f 1//21 11//21 22//21 3//21
f 11//22 12//22 21//22 22//22
f 23//23 24//23 18//23
f 18//24 17//24 23//24
f 17//25 18//25 15//25
f 16//26 17//26 15//26
f 4//27 6//27 17//27
f 23//28 17//28 6//28
f 6//29 8//29 23//29
f 29//30 23//30 8//30
f 8//31 10//31 29//31
f 35//32 29//32 10//32
f 10//33 2//33 35//33
f 16//34 35//34 2//34
f 2//35 4//35 16//35
f 17//36 16//36 4//36
f 19//37 18//37 24//37
f 24//38 25//38 19//38
f 25//39 24//39 30//39
f 30//40 31//40 25//40
f 31//41 30//41 36//41
f 36//42 37//42 31//42
f 32//43 31//43 37//43
f 37//44 38//44 32//44
f 38//45 37//45 14//45
f 13//46 38//46 14//46
f 14//47 19//47 13//47
f 19//48 20//48 13//48
f 20//49 19//49 25//49
f 25//50 26//50 20//50
f 26//51 25//51 31//51
f 31//52 32//52 26//52
f 27//53 26//53 32//53
f 32//54 33//54 27//54
f 33//55 32//55 38//55
f 38//56 39//56 33//56
f 39//57 38//57 13//57
f 12//58 39//58 13//58
f 13//59 20//59 12//59
f 20//60 21//60 12//60
f 21//61 20//61 26//61
f 26//62 27//62 21//62
