# Blender v2.79 (sub 0) OBJ File: 'Morphy.blend'
# www.blender.org
o Morphy_Cylinder.003
v 0.000000 0.000000 -0.500000
v -0.044048 1.876086 -0.016032
v 0.475528 0.000000 -0.154508
v 0.001636 1.876086 -0.046846
v 0.293893 0.000000 0.404509
v 0.045059 1.876086 -0.012921
v -0.293893 0.000000 0.404508
v 0.026212 1.876086 0.038861
v -0.475528 0.000000 -0.154509
v -0.028859 1.876086 0.036938
v -0.134432 0.619836 -0.191989
v 0.141050 0.619836 -0.187180
v 0.221606 0.619836 0.076305
v -0.004090 0.619836 0.234339
v -0.224134 0.619836 0.068525
v -0.177024 1.152965 -0.116453
v -0.001313 1.664280 -0.101287
v -0.026389 1.767410 -0.290419
v 0.076735 1.767410 -0.168291
v 0.014878 1.664280 -0.072077
v -0.076849 1.152965 -0.114705
v -0.165457 1.152965 0.132374
v -0.096735 1.664280 -0.030050
v -0.284359 1.767409 -0.064647
v -0.136342 1.767409 -0.124984
v -0.063952 1.664280 -0.036423
v -0.132838 1.152965 0.037642
v -0.160999 1.767410 0.091046
v -0.054402 1.664280 0.049567
v -0.005250 1.152965 0.137969
v 0.074766 1.152965 0.198265
v -0.058472 1.664280 0.082715
v -0.149354 1.767410 0.250465
v 0.211665 1.152965 -0.009840
v 0.060597 1.664280 0.081171
v 0.192053 1.767410 0.219442
v 0.036839 1.767410 0.181254
v 0.030329 1.664280 0.067056
v 0.129594 1.152965 0.047627
v 0.056050 1.152965 -0.204346
v 0.095923 1.664280 -0.032548
v 0.268050 1.767410 -0.114842
v 0.183767 1.767410 0.020975
v 0.073147 1.664280 -0.008123
v 0.085343 1.152965 -0.108533
vn 0.0000 1.0000 0.0000
vn 0.3289 0.7624 0.5573
vn 0.0000 -1.0000 0.0000
vn 0.6317 0.7624 -0.1406
vn 0.0615 0.7624 -0.6442
vn -0.5937 0.7624 -0.2576
vn -0.4284 0.7624 0.4850
vn -0.5195 0.4679 -0.7150
vn 0.5195 0.4679 -0.7150
vn 0.8405 0.4679 0.2731
vn -0.0000 0.4679 0.8838
vn -0.8405 0.4679 0.2731
vn 0.0174 -0.0432 -0.9989
vn -0.9446 -0.0432 -0.3253
vn -0.6013 -0.0432 0.7979
vn 0.5730 -0.0432 0.8184
vn 0.9554 -0.0432 -0.2921
vn -0.5957 0.1416 0.7906
vn 0.2571 -0.0126 -0.9663
vn 0.5562 -0.7059 -0.4385
vn 0.3786 0.8686 -0.3197
vn -0.5159 -0.7644 -0.3867
vn -0.9704 0.2274 -0.0818
vn -0.8396 -0.0126 -0.5431
vn -0.2452 -0.7059 -0.6645
vn -0.1870 0.8686 -0.4588
vn -0.5272 -0.7644 0.3712
vn -0.3776 0.2274 0.8976
vn -0.7760 -0.0126 0.6307
vn -0.7078 -0.7059 0.0278
vn -0.4942 0.8686 0.0361
vn 0.1901 -0.7644 0.6161
vn 0.7370 0.2274 0.6365
vn 0.9334 -0.1151 0.3397
vn 0.3600 -0.0126 0.9329
vn -0.1922 -0.7059 0.6817
vn -0.1184 0.8686 0.4811
vn 0.2083 -0.7644 -0.6102
vn -0.2221 0.2274 -0.9481
vn 0.6447 -0.7644 0.0096
vn 0.8331 0.2274 -0.5042
vn 0.5678 0.1416 0.8109
vn -0.0347 -0.1151 0.9928
vn -0.9360 0.1416 -0.3223
vn -0.9549 -0.1151 0.2738
vn 0.0173 0.1416 -0.9898
vn -0.5555 -0.1151 -0.8235
vn 0.9467 0.1416 -0.2894
vn 0.6116 -0.1151 -0.7828
vn 0.9985 -0.0126 -0.0541
vn 0.5890 -0.7059 0.3935
vn 0.4210 0.8686 0.2613
s off
f 4//1 2//1 10//1 8//1 6//1
f 8//2 33//2 37//2 6//2
f 1//3 3//3 5//3 7//3 9//3
f 6//4 36//4 43//4 4//4
f 4//5 42//5 19//5 2//5
f 2//6 18//6 25//6 10//6
f 10//7 24//7 28//7 8//7
f 9//8 15//8 1//8
f 1//9 11//9 3//9
f 3//10 12//10 5//10
f 5//11 13//11 7//11
f 7//12 14//12 9//12
f 12//13 3//13 11//13
f 11//14 1//14 15//14
f 15//15 9//15 14//15
f 14//16 7//16 13//16
f 13//17 5//17 12//17
f 14//18 31//18 30//18 15//18
f 16//19 17//19 20//19 21//19
f 17//20 18//20 19//20 20//20
f 18//21 2//21 19//21
f 18//22 17//22 26//22 25//22
f 17//23 16//23 27//23 26//23
f 22//24 23//24 26//24 27//24
f 23//25 24//25 25//25 26//25
f 24//26 10//26 25//26
f 24//27 23//27 29//27 28//27
f 23//28 22//28 30//28 29//28
f 32//29 29//29 30//29 31//29
f 28//30 29//30 32//30 33//30
f 8//31 28//31 33//31
f 33//32 32//32 38//32 37//32
f 32//33 31//33 39//33 38//33
f 14//34 39//34 31//34
f 39//35 34//35 35//35 38//35
f 38//36 35//36 36//36 37//36
f 37//37 36//37 6//37
f 42//38 41//38 20//38 19//38
f 41//39 40//39 21//39 20//39
f 36//40 35//40 44//40 43//40
f 35//41 34//41 45//41 44//41
f 13//42 34//42 39//42 14//42
f 30//43 22//43 15//43
f 15//44 22//44 27//44 11//44
f 27//45 16//45 11//45
f 11//46 16//46 21//46 12//46
f 21//47 40//47 12//47
f 12//48 40//48 45//48 13//48
f 34//49 13//49 45//49
f 40//50 41//50 44//50 45//50
f 41//51 42//51 43//51 44//51
f 42//52 4//52 43//52
