# Blender v2.76 (sub 0) OBJ File: 'Piece_Pawn.blend'
# www.blender.org
o Piece_Pawn_Cylinder.002
v 0.000000 0.000000 -0.350000
v -0.000000 1.150000 -0.070000
v 0.303109 0.000000 -0.175000
v 0.060622 1.150000 -0.035000
v 0.303109 0.000000 0.175000
v 0.060622 1.150000 0.035000
v -0.000000 0.000000 0.350000
v -0.000000 1.150000 0.070000
v -0.303109 0.000000 0.175000
v -0.060622 1.150000 0.035000
v -0.303109 0.000000 -0.175000
v -0.060622 1.150000 -0.035000
v 0.000000 0.100000 -0.350000
v -0.000000 0.150000 -0.238000
v -0.000000 0.750000 -0.070000
v -0.000000 0.825000 -0.173250
v -0.000000 0.950000 -0.236250
v -0.000000 1.075000 -0.173250
v 0.150039 1.075000 -0.086625
v 0.204599 0.950000 -0.118125
v 0.150039 0.825000 -0.086625
v 0.060622 0.750000 -0.035000
v 0.206114 0.150000 -0.119000
v 0.303109 0.100000 -0.175000
v 0.150039 1.075000 0.086625
v 0.204598 0.950000 0.118125
v 0.150039 0.825000 0.086625
v 0.060622 0.750000 0.035000
v 0.206114 0.150000 0.119000
v 0.303109 0.100000 0.175000
v -0.000000 1.075000 0.173250
v -0.000000 0.950000 0.236250
v -0.000000 0.825000 0.173250
v -0.000000 0.750000 0.070000
v -0.000000 0.150000 0.238000
v -0.000000 0.100000 0.350000
v -0.150039 1.075000 0.086625
v -0.204599 0.950000 0.118125
v -0.150039 0.825000 0.086625
v -0.060622 0.750000 0.035000
v -0.206114 0.150000 0.119000
v -0.303109 0.100000 0.175000
v -0.150039 1.075000 -0.086625
v -0.204599 0.950000 -0.118125
v -0.150039 0.825000 -0.086625
v -0.060622 0.750000 -0.035000
v -0.206114 0.150000 -0.119000
v -0.303109 0.100000 -0.175000
vn 0.321300 0.766200 -0.556500
vn 0.642600 0.766200 0.000000
vn 0.321300 0.766200 0.556500
vn -0.321300 0.766200 0.556500
vn 0.000000 1.000000 0.000000
vn -0.321300 0.766200 -0.556500
vn -0.642600 0.766200 0.000000
vn 0.000000 -1.000000 0.000000
vn -1.000000 0.000000 0.000000
vn -0.458200 0.888900 0.000000
vn -0.971800 0.235700 0.000000
vn -0.642600 -0.766200 0.000000
vn -0.916500 -0.400000 0.000000
vn -0.916500 0.400000 0.000000
vn -0.500000 0.000000 -0.866000
vn -0.229100 0.888900 -0.396800
vn -0.485900 0.235700 -0.841600
vn -0.321300 -0.766200 -0.556500
vn -0.458300 -0.400000 -0.793700
vn -0.458300 0.400000 -0.793700
vn -0.500000 0.000000 0.866000
vn -0.229100 0.888900 0.396800
vn -0.485900 0.235700 0.841600
vn -0.321300 -0.766200 0.556500
vn -0.458300 -0.400000 0.793700
vn -0.458300 0.400000 0.793700
vn 0.500000 0.000000 0.866000
vn 0.229100 0.888900 0.396800
vn 0.485900 0.235700 0.841600
vn 0.321300 -0.766200 0.556500
vn 0.458300 -0.400000 0.793700
vn 0.458300 0.400000 0.793700
vn 1.000000 0.000000 0.000000
vn 0.458200 0.888900 0.000000
vn 0.971800 0.235700 0.000000
vn 0.642600 -0.766200 0.000000
vn 0.916500 -0.400000 0.000000
vn 0.916500 0.400000 0.000000
vn 0.500000 0.000000 -0.866000
vn 0.229100 0.888900 -0.396800
vn 0.485900 0.235700 -0.841600
vn 0.321300 -0.766200 -0.556500
vn 0.458300 -0.400000 -0.793700
vn 0.458300 0.400000 -0.793700
s off
f 18//1 2//1 4//1 19//1
f 19//2 4//2 6//2 25//2
f 25//3 6//3 8//3 31//3
f 31//4 8//4 10//4 37//4
f 4//5 2//5 12//5 10//5 8//5 6//5
f 43//6 12//6 2//6 18//6
f 37//7 10//7 12//7 43//7
f 1//8 3//8 5//8 7//8 9//8 11//8
f 9//9 42//9 48//9 11//9
f 42//10 41//10 47//10 48//10
f 41//11 40//11 46//11 47//11
f 40//12 39//12 45//12 46//12
f 39//13 38//13 44//13 45//13
f 38//14 37//14 43//14 44//14
f 11//15 48//15 13//15 1//15
f 48//16 47//16 14//16 13//16
f 47//17 46//17 15//17 14//17
f 46//18 45//18 16//18 15//18
f 45//19 44//19 17//19 16//19
f 44//20 43//20 18//20 17//20
f 7//21 36//21 42//21 9//21
f 36//22 35//22 41//22 42//22
f 35//23 34//23 40//23 41//23
f 34//24 33//24 39//24 40//24
f 33//25 32//25 38//25 39//25
f 32//26 31//26 37//26 38//26
f 5//27 30//27 36//27 7//27
f 30//28 29//28 35//28 36//28
f 29//29 28//29 34//29 35//29
f 28//30 27//30 33//30 34//30
f 27//31 26//31 32//31 33//31
f 26//32 25//32 31//32 32//32
f 3//33 24//33 30//33 5//33
f 24//34 23//34 29//34 30//34
f 23//35 22//35 28//35 29//35
f 22//36 21//36 27//36 28//36
f 21//37 20//37 26//37 27//37
f 20//38 19//38 25//38 26//38
f 1//39 13//39 24//39 3//39
f 13//40 14//40 23//40 24//40
f 14//41 15//41 22//41 23//41
f 15//42 16//42 21//42 22//42
f 16//43 17//43 20//43 21//43
f 17//44 18//44 19//44 20//44
