# Blender v2.76 (sub 0) OBJ File: 'Piece_Pawn.blend'
# www.blender.org
o Piece_Pawn_Cube
v 0.500000 0.000000 -0.500000
v 0.500000 0.000000 0.500000
v -0.500000 0.000000 0.500000
v -0.500000 0.000000 -0.500000
v 0.075000 1.500000 -0.075000
v 0.075000 1.500000 0.075000
v -0.075000 1.500000 0.075000
v -0.075000 1.500000 -0.075000
v 0.500000 0.150000 -0.500000
v 0.225000 0.262500 -0.225000
v 0.125000 0.975000 -0.125000
v 0.250000 1.275000 -0.250000
v 0.500000 0.150000 0.500000
v 0.225000 0.262500 0.225000
v 0.125000 0.975000 0.125000
v 0.250000 1.275000 0.250000
v -0.500000 0.150000 0.500000
v -0.225000 0.262500 0.225000
v -0.125000 0.975000 0.125000
v -0.250000 1.275000 0.250000
v -0.500000 0.150000 -0.500000
v -0.225000 0.262500 -0.225000
v -0.125000 0.975000 -0.125000
v -0.250000 1.275000 -0.250000
vn 0.000000 -1.000000 0.000000
vn 0.000000 1.000000 0.000000
vn 0.789400 0.613900 0.000000
vn -0.000000 0.613900 0.789400
vn -0.789400 0.613900 0.000000
vn 0.000000 0.000000 -1.000000
vn 0.000000 0.613900 -0.789400
vn 0.000000 -0.384600 -0.923100
vn 0.000000 0.139000 -0.990300
vn 0.000000 0.925500 -0.378600
vn -1.000000 0.000000 -0.000000
vn -0.378600 0.925500 -0.000000
vn -0.990300 0.139000 -0.000000
vn -0.923100 -0.384600 -0.000000
vn -0.000000 -0.000000 1.000000
vn -0.000000 0.925500 0.378600
vn -0.000000 0.139000 0.990300
vn -0.000000 -0.384600 0.923100
vn 1.000000 -0.000000 0.000000
vn 0.378600 0.925500 0.000000
vn 0.990300 0.139000 0.000000
vn 0.923100 -0.384600 0.000000
s off
f 1//1 2//1 3//1 4//1
f 5//2 8//2 7//2 6//2
f 12//3 5//3 6//3 16//3
f 16//4 6//4 7//4 20//4
f 20//5 7//5 8//5 24//5
f 9//6 1//6 4//6 21//6
f 5//7 12//7 24//7 8//7
f 12//8 11//8 23//8 24//8
f 11//9 10//9 22//9 23//9
f 10//10 9//10 21//10 22//10
f 3//11 17//11 21//11 4//11
f 17//12 18//12 22//12 21//12
f 18//13 19//13 23//13 22//13
f 19//14 20//14 24//14 23//14
f 2//15 13//15 17//15 3//15
f 13//16 14//16 18//16 17//16
f 14//17 15//17 19//17 18//17
f 15//18 16//18 20//18 19//18
f 1//19 9//19 13//19 2//19
f 9//20 10//20 14//20 13//20
f 10//21 11//21 15//21 14//21
f 11//22 12//22 16//22 15//22
