# Blender v2.76 (sub 0) OBJ File: 'Piece_Knight.blend'
# www.blender.org
o Piece_Knight_Cylinder
v 0.000000 0.000000 -0.400000
v -0.236394 1.700000 -0.138458
v 0.346410 0.000000 -0.200000
v 0.346410 1.565635 -0.120026
v 0.346410 0.000000 0.200000
v 0.346410 1.565635 0.120026
v -0.000000 0.000000 0.400000
v -0.236394 1.700000 0.138458
v -0.346410 0.000000 0.200000
v -0.346410 0.000000 -0.200000
v 0.000000 0.100000 -0.400000
v -0.000000 0.150000 -0.320000
v 0.191638 0.821469 -0.108549
v -0.152238 0.728670 -0.100538
v -0.046740 1.279267 -0.172867
v 0.304031 1.287099 -0.088293
v 0.277128 0.150000 -0.160000
v 0.346410 0.100000 -0.200000
v 0.304031 1.287099 0.088293
v -0.046740 1.279267 0.172867
v 0.191638 0.821469 0.108549
v 0.277128 0.150000 0.160000
v 0.346410 0.100000 0.200000
v -0.152238 0.728670 0.100538
v -0.000000 0.150000 0.320000
v -0.000000 0.100000 0.400000
v -0.277128 0.150000 0.160000
v -0.346410 0.100000 0.200000
v -0.277128 0.150000 -0.160000
v -0.346410 0.100000 -0.200000
vn 0.235000 -0.145200 -0.961100
vn 0.988600 -0.150400 0.000000
vn -0.314300 -0.064200 -0.947200
vn 0.235000 -0.145200 0.961100
vn 0.224700 0.974400 0.000000
vn -0.490600 0.193200 -0.849700
vn 0.000000 -1.000000 0.000000
vn -1.000000 0.000000 0.000000
vn -0.585200 0.810900 0.000000
vn -0.500000 0.000000 -0.866000
vn -0.292600 0.810900 -0.506800
vn -0.110100 0.327000 -0.938600
vn -0.500000 0.000000 0.866000
vn -0.292600 0.810900 0.506800
vn 0.500000 0.000000 0.866000
vn 0.292600 0.810900 0.506800
vn -0.996300 -0.086300 0.000000
vn -0.490600 0.193200 0.849700
vn 1.000000 0.000000 0.000000
vn 0.585200 0.810900 0.000000
vn 0.500000 0.000000 -0.866000
vn 0.292600 0.810900 -0.506800
vn 0.992000 0.126300 0.000000
vn 0.055900 0.106400 0.992700
vn 0.495800 0.128900 -0.858800
vn -0.110100 0.327000 0.938600
vn 0.495800 0.128900 0.858800
vn 0.012700 -0.132600 0.991100
vn -0.977500 0.211000 0.000000
vn -0.314300 -0.064200 0.947200
vn 0.055900 0.106400 -0.992700
vn 0.022300 -0.999800 0.000000
vn 0.887000 0.461800 0.000000
vn 0.012700 -0.132600 -0.991100
s off
f 16//1 15//1 4//1
f 16//2 4//2 6//2 19//2
f 14//3 2//3 15//3
f 19//4 6//4 20//4
f 4//5 2//5 8//5 6//5
f 29//6 14//6 12//6
f 1//7 3//7 5//7 7//7 9//7 10//7
f 9//8 28//8 30//8 10//8
f 28//9 27//9 29//9 30//9
f 10//10 30//10 11//10 1//10
f 30//11 29//11 12//11 11//11
f 13//12 12//12 14//12
f 7//13 26//13 28//13 9//13
f 26//14 25//14 27//14 28//14
f 5//15 23//15 26//15 7//15
f 23//16 22//16 25//16 26//16
f 24//17 8//17 2//17 14//17
f 25//18 24//18 27//18
f 3//19 18//19 23//19 5//19
f 18//20 17//20 22//20 23//20
f 1//21 11//21 18//21 3//21
f 11//22 12//22 17//22 18//22
f 17//23 13//23 21//23 22//23
f 6//24 8//24 20//24
f 12//25 13//25 17//25
f 25//26 21//26 24//26
f 22//27 21//27 25//27
f 21//28 20//28 24//28
f 27//29 24//29 14//29 29//29
f 20//30 8//30 24//30
f 15//31 2//31 4//31
f 15//32 16//32 19//32 20//32
f 13//33 15//33 20//33 21//33
f 13//34 14//34 15//34
