# Blender v2.76 (sub 0) OBJ File: 'Piece_Knight.blend'
# www.blender.org
o Piece_Knight_Cube
v 0.500000 0.000000 -0.500000
v 0.500000 0.000000 0.500000
v -0.500000 0.000000 0.500000
v -0.500000 0.000000 -0.500000
v 0.150000 1.700000 -0.200000
v -0.150000 1.700000 -0.200000
v 0.500000 0.085000 -0.500000
v 0.350000 0.170000 -0.350000
v 0.175000 0.600000 -0.200000
v 0.500000 0.085000 0.500000
v 0.250000 0.170000 0.350000
v 0.150000 1.250000 -0.050000
v 0.150000 1.300000 0.300000
v 0.200000 1.550000 0.350000
v -0.500000 0.085000 0.500000
v -0.250000 0.170000 0.350000
v -0.150000 1.250000 -0.050000
v -0.150000 1.300000 0.300000
v -0.200000 1.550000 0.350000
v -0.500543 0.082239 -0.498892
v -0.350000 0.170000 -0.350000
v -0.175000 0.600000 -0.200000
v 0.200000 0.750000 0.300000
v -0.200000 0.750000 0.300000
vn 0.000000 0.000000 -1.000000
vn -0.994500 -0.033100 -0.099400
vn -0.000600 0.006600 -1.000000
vn 0.997400 0.022700 0.068000
vn -0.001700 0.865800 -0.500400
vn -1.000000 -0.003300 0.000300
vn -0.997400 0.022700 0.068000
vn -0.000000 -0.000000 1.000000
vn -0.000000 0.870000 0.493000
vn -0.000000 0.573500 0.819200
vn -0.000000 -0.989900 0.141400
vn -0.000000 -0.196100 0.980600
vn 1.000000 0.000000 0.000000
vn 0.994500 -0.033100 -0.099400
vn -0.000000 0.964800 0.263100
vn -0.000000 0.085900 0.996300
vn 0.000000 0.329400 -0.944200
vn 0.890300 0.422000 -0.171100
vn 0.985300 0.097100 0.140800
vn -0.996400 0.053500 -0.065900
vn -0.979100 -0.201600 0.028800
vn 0.996400 0.053500 -0.065900
vn -0.890300 0.422000 -0.171100
vn -0.985300 0.097100 0.140800
vn 0.493000 0.870000 0.000000
vn 0.298600 0.953400 0.042700
vn -0.298600 0.953400 0.042700
vn -0.502100 0.864800 -0.002100
vn 0.979100 -0.201600 0.028800
s off
f 5//1 9//1 22//1 6//1
f 19//2 6//2 17//2
f 7//3 1//3 4//3 20//3
f 5//4 12//4 9//4
f 8//5 7//5 20//5 21//5
f 3//6 15//6 20//6 4//6
f 6//7 22//7 17//7
f 2//8 10//8 15//8 3//8
f 10//9 11//9 16//9 15//9
f 23//10 12//10 17//10 24//10
f 12//11 13//11 18//11 17//11
f 13//12 14//12 19//12 18//12
f 1//13 7//13 10//13 2//13
f 12//14 5//14 14//14
f 14//15 5//15 6//15 19//15
f 11//16 23//16 24//16 16//16
f 22//17 9//17 8//17 21//17
f 23//18 8//18 9//18
f 11//19 8//19 23//19
f 24//20 17//20 22//20
f 19//21 17//21 18//21
f 23//22 9//22 12//22
f 21//23 24//23 22//23
f 21//24 16//24 24//24
f 8//25 10//25 7//25
f 10//26 8//26 11//26
f 16//27 21//27 15//27
f 20//28 15//28 21//28
f 14//29 13//29 12//29
