# Blender v2.76 (sub 0) OBJ File: 'Piece_King.blend'
# www.blender.org
o Piece_king_Cube
v 0.500000 0.000000 -0.500000
v 0.500000 0.000000 0.500000
v -0.500000 0.000000 0.500000
v -0.500000 0.000000 -0.500000
v 0.075000 1.350000 -0.075000
v 0.075000 1.350000 0.075000
v -0.075000 1.350000 0.075000
v -0.075000 1.350000 -0.075000
v 0.500000 0.100000 -0.500000
v 0.160000 0.200000 -0.160000
v 0.160000 0.950000 -0.160000
v 0.320000 1.150000 -0.320000
v 0.320000 1.250000 -0.320000
v 0.500000 0.100000 0.500000
v 0.160000 0.200000 0.160000
v 0.160000 0.950000 0.160000
v 0.320000 1.150000 0.320000
v 0.320000 1.250000 0.320000
v -0.500000 0.100000 0.500000
v -0.160000 0.200000 0.160000
v -0.160000 0.950000 0.160000
v -0.320000 1.150000 0.320000
v -0.320000 1.250000 0.320000
v -0.500000 0.100000 -0.500000
v -0.160000 0.200000 -0.160000
v -0.160000 0.950000 -0.160000
v -0.320000 1.150000 -0.320000
v -0.320000 1.250000 -0.320000
v 0.075000 1.900000 -0.075000
v 0.075000 1.900000 0.075000
v -0.075000 1.900000 -0.075000
v -0.075000 1.900000 0.075000
v -0.075000 1.600000 0.075000
v -0.075000 1.716667 0.075000
v -0.075000 1.716667 -0.075000
v -0.075000 1.600000 -0.075000
v 0.075000 1.716667 -0.075000
v 0.075000 1.600000 -0.075000
v 0.075000 1.600000 0.075000
v 0.075000 1.716667 0.075000
v 0.250000 1.716667 -0.075000
v 0.250000 1.600000 -0.075000
v 0.250000 1.600000 0.075000
v 0.250000 1.716667 0.075000
v -0.250000 1.600000 0.075000
v -0.250000 1.716667 0.075000
v -0.250000 1.716667 -0.075000
v -0.250000 1.600000 -0.075000
vn -1.000000 0.000000 -0.000000
vn 0.377900 0.925800 0.000000
vn -0.000000 0.925800 0.377900
vn -0.377900 0.925800 0.000000
vn 0.000000 0.000000 -1.000000
vn 0.000000 0.925800 -0.377900
vn 0.000000 -0.624700 -0.780900
vn 0.000000 0.959400 -0.282200
vn -0.282200 0.959400 -0.000000
vn -0.780900 -0.624700 -0.000000
vn -0.000000 -0.000000 1.000000
vn -0.000000 0.959400 0.282200
vn -0.000000 -0.624700 0.780900
vn 1.000000 0.000000 0.000000
vn 0.282200 0.959400 0.000000
vn 0.780900 -0.624700 0.000000
vn 0.000000 1.000000 0.000000
vn 0.000000 -1.000000 -0.000000
s off
f 35//1 34//1 32//1 31//1
f 13//2 5//2 6//2 18//2
f 18//3 6//3 7//3 23//3
f 23//4 7//4 8//4 28//4
f 9//5 1//5 4//5 24//5
f 5//6 13//6 28//6 8//6
f 13//5 12//5 27//5 28//5
f 12//7 11//7 26//7 27//7
f 11//5 10//5 25//5 26//5
f 10//8 9//8 24//8 25//8
f 3//1 19//1 24//1 4//1
f 19//9 20//9 25//9 24//9
f 20//1 21//1 26//1 25//1
f 21//10 22//10 27//10 26//10
f 22//1 23//1 28//1 27//1
f 2//11 14//11 19//11 3//11
f 14//12 15//12 20//12 19//12
f 15//11 16//11 21//11 20//11
f 16//13 17//13 22//13 21//13
f 17//11 18//11 23//11 22//11
f 1//14 9//14 14//14 2//14
f 9//15 10//15 15//15 14//15
f 10//14 11//14 16//14 15//14
f 11//16 12//16 17//16 16//16
f 12//14 13//14 18//14 17//14
f 29//17 31//17 32//17 30//17
f 37//5 35//5 31//5 29//5
f 34//11 40//11 30//11 32//11
f 40//14 37//14 29//14 30//14
f 6//14 5//14 38//14 39//14
f 37//17 40//17 44//17 41//17
f 7//11 6//11 39//11 33//11
f 33//11 39//11 40//11 34//11
f 5//5 8//5 36//5 38//5
f 38//5 36//5 35//5 37//5
f 8//1 7//1 33//1 36//1
f 34//17 35//17 47//17 46//17
f 43//14 42//14 41//14 44//14
f 40//11 39//11 43//11 44//11
f 38//5 37//5 41//5 42//5
f 39//18 38//18 42//18 43//18
f 48//1 45//1 46//1 47//1
f 35//5 36//5 48//5 47//5
f 36//18 33//18 45//18 48//18
f 33//11 34//11 46//11 45//11
