# Blender v2.79 (sub 0) OBJ File: 'Piece_Queen.blend'
# www.blender.org
o Piece_Queen_Cylinder
v 0.000000 0.000000 -0.450000
v 0.389711 0.000000 -0.225000
v 0.389711 0.000000 0.225000
v -0.000000 0.000000 0.450000
v -0.389711 0.000000 0.225000
v -0.389711 0.000000 -0.225000
v 0.000000 0.100000 -0.450000
v -0.000000 0.150000 -0.270000
v -0.000000 0.900000 -0.180000
v -0.000000 1.063533 -0.324000
v -0.000000 1.114372 -0.241410
v -0.000000 1.079879 -0.131473
v 0.100000 1.079879 -0.050386
v 0.209067 1.114372 -0.120705
v 0.280592 1.063533 -0.162000
v 0.155885 0.900000 -0.090000
v 0.233827 0.150000 -0.135000
v 0.389711 0.100000 -0.225000
v 0.100000 1.079879 0.050000
v 0.209067 1.114372 0.120705
v 0.280592 1.063533 0.162000
v 0.155885 0.900000 0.090000
v 0.233827 0.150000 0.135000
v 0.389711 0.100000 0.225000
v -0.000000 1.079879 0.132400
v -0.000000 1.114372 0.241410
v -0.000000 1.063533 0.324000
v -0.000000 0.900000 0.180000
v -0.000000 0.150000 0.270000
v -0.000000 0.100000 0.450000
v -0.100000 1.079879 0.050000
v -0.209067 1.114372 0.120705
v -0.280592 1.063533 0.162000
v -0.155885 0.900000 0.090000
v -0.233827 0.150000 0.135000
v -0.389711 0.100000 0.225000
v -0.100000 1.079879 -0.048841
v -0.209067 1.114372 -0.120705
v -0.280592 1.063533 -0.162000
v -0.155885 0.900000 -0.090000
v -0.233827 0.150000 -0.135000
v -0.389711 0.100000 -0.225000
v -0.000000 1.500000 -0.314410
v 0.238845 1.500000 -0.120738
v 0.238845 1.500000 0.119029
v -0.000000 1.500000 0.315837
v -0.238845 1.500000 0.119029
v -0.238845 1.500000 -0.117048
v -0.000000 1.547636 -0.292040
v 0.221867 1.547636 -0.112135
v 0.221867 1.547636 0.110588
v -0.000000 1.547636 0.293406
v -0.221867 1.547636 0.110588
v -0.221867 1.547636 -0.108708
v -0.000000 1.516195 -0.128917
v 0.098060 1.516195 -0.049403
v 0.098060 1.516195 0.049036
v -0.000000 1.516195 0.129837
v -0.098060 1.516195 0.049036
v -0.098060 1.516195 -0.047889
v 0.000000 1.559680 0.000000
v 0.144720 1.670237 0.105144
v -0.055277 1.670237 0.170128
v -0.178885 1.670237 0.000000
v -0.055277 1.670237 -0.170128
v 0.144720 1.670237 -0.105144
v 0.055277 1.849123 0.170128
v -0.144720 1.849123 0.105144
v -0.144720 1.849123 -0.105144
v 0.055277 1.849123 -0.170128
v 0.178885 1.849123 0.000000
v 0.000000 1.959680 0.000000
vn 0.0000 -1.0000 0.0000
vn -1.0000 0.0000 0.0000
vn -0.3054 0.9522 0.0000
vn -0.9946 0.1034 0.0000
vn -0.7952 -0.6064 0.0000
vn -0.5793 0.8151 0.0000
vn 0.3015 0.9535 0.0000
vn -0.5000 0.0000 -0.8660
vn -0.1527 0.9522 -0.2645
vn -0.4973 0.1034 -0.8614
vn -0.3976 -0.6064 -0.6886
vn -0.2897 0.8151 -0.5017
vn 0.1702 0.9508 0.2587
vn -0.5000 0.0000 0.8660
vn -0.1527 0.9522 0.2645
vn -0.4973 0.1034 0.8614
vn -0.3976 -0.6064 0.6886
vn -0.2897 0.8151 0.5017
vn 0.1713 0.9501 -0.2607
vn 0.5000 0.0000 0.8660
vn 0.1527 0.9522 0.2645
vn 0.4973 0.1034 0.8614
vn 0.3976 -0.6064 0.6886
vn 0.2897 0.8151 0.5017
vn -0.1713 0.9501 -0.2607
vn 1.0000 0.0000 0.0000
vn 0.3054 0.9522 0.0000
vn 0.9946 0.1034 0.0000
vn 0.7952 -0.6064 0.0000
vn 0.5793 0.8151 0.0000
vn -0.3015 0.9535 0.0000
vn 0.5000 0.0000 -0.8660
vn 0.1527 0.9522 -0.2645
vn 0.4973 0.1034 -0.8614
vn 0.3976 -0.6064 -0.6886
vn 0.2897 0.8151 -0.5017
vn -0.1702 0.9503 0.2607
vn 0.9495 -0.3138 0.0000
vn -0.9495 -0.3138 0.0000
vn -0.6039 -0.3182 -0.7308
vn -0.6026 -0.3193 0.7313
vn 0.5966 -0.3204 -0.7358
vn 0.6026 -0.3193 0.7313
vn -0.9420 0.3357 0.0000
vn 0.5917 0.3427 -0.7297
vn 0.5977 0.3415 0.7253
vn -0.5990 0.3404 -0.7248
vn 0.9420 0.3357 0.0000
vn -0.5977 0.3415 0.7253
vn -0.2461 0.9692 0.0000
vn 0.1537 0.9704 -0.1865
vn 0.2461 0.9692 0.0000
vn -0.1517 0.9706 0.1871
vn -0.1537 0.9704 -0.1865
vn 0.1545 0.9701 0.1870
vn 0.0000 1.0000 0.0000
vn 0.1876 -0.7947 0.5774
vn 0.6071 -0.7947 0.0000
vn -0.4911 -0.7947 0.3568
vn -0.4911 -0.7947 -0.3568
vn 0.1876 -0.7947 -0.5774
vn 0.9822 -0.1876 0.0000
vn 0.3035 -0.1876 0.9342
vn -0.7946 -0.1876 0.5774
vn -0.7946 -0.1876 -0.5774
vn 0.3035 -0.1876 -0.9342
vn 0.7946 0.1876 0.5774
vn -0.3035 0.1876 0.9342
vn -0.9822 0.1876 0.0000
vn -0.3035 0.1876 -0.9342
vn 0.7946 0.1876 -0.5774
vn 0.4911 0.7947 0.3568
vn -0.1876 0.7947 0.5774
vn -0.6071 0.7947 0.0000
vn -0.1876 0.7947 -0.5774
vn 0.4911 0.7947 -0.3568
s off
f 1//1 2//1 3//1 4//1 5//1 6//1
f 5//2 36//2 42//2 6//2
f 36//3 35//3 41//3 42//3
f 35//4 34//4 40//4 41//4
f 34//5 33//5 39//5 40//5
f 33//6 32//6 38//6 39//6
f 32//7 31//7 37//7 38//7
f 6//8 42//8 7//8 1//8
f 42//9 41//9 8//9 7//9
f 41//10 40//10 9//10 8//10
f 40//11 39//11 10//11 9//11
f 39//12 38//12 11//12 10//12
f 38//13 37//13 12//13 11//13
f 4//14 30//14 36//14 5//14
f 30//15 29//15 35//15 36//15
f 29//16 28//16 34//16 35//16
f 28//17 27//17 33//17 34//17
f 27//18 26//18 32//18 33//18
f 26//19 25//19 31//19 32//19
f 3//20 24//20 30//20 4//20
f 24//21 23//21 29//21 30//21
f 23//22 22//22 28//22 29//22
f 22//23 21//23 27//23 28//23
f 21//24 20//24 26//24 27//24
f 20//25 19//25 25//25 26//25
f 2//26 18//26 24//26 3//26
f 18//27 17//27 23//27 24//27
f 17//28 16//28 22//28 23//28
f 16//29 15//29 21//29 22//29
f 15//30 14//30 20//30 21//30
f 14//31 13//31 19//31 20//31
f 1//32 7//32 18//32 2//32
f 7//33 8//33 17//33 18//33
f 8//34 9//34 16//34 17//34
f 9//35 10//35 15//35 16//35
f 10//36 11//36 14//36 15//36
f 11//37 12//37 13//37 14//37
f 29//1 35//1 41//1 8//1 17//1 23//1
f 19//38 13//38 44//38 45//38
f 37//39 31//39 47//39 48//39
f 12//40 37//40 48//40 43//40
f 31//41 25//41 46//41 47//41
f 13//42 12//42 43//42 44//42
f 25//43 19//43 45//43 46//43
f 48//44 47//44 53//44 54//44
f 44//45 43//45 49//45 50//45
f 46//46 45//46 51//46 52//46
f 43//47 48//47 54//47 49//47
f 45//48 44//48 50//48 51//48
f 47//49 46//49 52//49 53//49
f 51//50 50//50 56//50 57//50
f 53//51 52//51 58//51 59//51
f 54//52 53//52 59//52 60//52
f 50//53 49//53 55//53 56//53
f 52//54 51//54 57//54 58//54
f 49//55 54//55 60//55 55//55
f 58//56 57//56 59//56
f 55//56 60//56 56//56
f 59//56 57//56 56//56 60//56
f 61//57 62//57 63//57
f 62//58 61//58 66//58
f 61//59 63//59 64//59
f 61//60 64//60 65//60
f 61//61 65//61 66//61
f 62//62 66//62 71//62
f 63//63 62//63 67//63
f 64//64 63//64 68//64
f 65//65 64//65 69//65
f 66//66 65//66 70//66
f 62//67 71//67 67//67
f 63//68 67//68 68//68
f 64//69 68//69 69//69
f 65//70 69//70 70//70
f 66//71 70//71 71//71
f 67//72 71//72 72//72
f 68//73 67//73 72//73
f 69//74 68//74 72//74
f 70//75 69//75 72//75
f 71//76 70//76 72//76
