# Blender v2.76 (sub 0) OBJ File: 'Tile_Wall.blend'
# www.blender.org
o Tile_Wall_Cube
v 0.500000 0.000000 -0.500000
v 0.500000 0.000000 0.500000
v -0.500000 0.000000 0.500000
v -0.500000 0.000000 -0.500000
v 0.200000 0.400000 -0.200000
v 0.200000 0.400000 0.200000
v -0.200000 0.400000 0.200000
v -0.200000 0.400000 -0.200000
v 0.500000 0.250000 -0.500000
v 0.500000 0.250000 0.500000
v -0.500000 0.250000 0.500000
v -0.500000 0.250000 -0.500000
vn 0.000000 1.000000 0.000000
vn 0.447200 0.894400 0.000000
vn -0.000000 0.894400 0.447200
vn -0.447200 0.894400 -0.000000
vn 0.000000 0.000000 -1.000000
vn 0.000000 0.894400 -0.447200
vn -1.000000 -0.000000 -0.000000
vn -0.000000 -0.000000 1.000000
vn 1.000000 0.000000 0.000000
s off
f 5//1 8//1 7//1 6//1
f 9//2 5//2 6//2 10//2
f 10//3 6//3 7//3 11//3
f 11//4 7//4 8//4 12//4
f 9//5 1//5 4//5 12//5
f 5//6 9//6 12//6 8//6
f 3//7 11//7 12//7 4//7
f 2//8 10//8 11//8 3//8
f 1//9 9//9 10//9 2//9
