# Blender v2.76 (sub 0) OBJ File: 'Tile_Selectable.blend'
# www.blender.org
o Tile_Selectable_Cube
v 0.500000 0.000000 -0.500000
v 0.500000 0.000000 0.500000
v -0.500000 0.000000 0.500000
v -0.500000 0.000000 -0.500000
v 0.500000 2.000000 -0.499999
v 0.499999 2.000000 0.500000
v -0.500000 2.000000 0.500000
v -0.500000 2.000000 -0.500000
vn 1.000000 0.000000 0.000000
vn -0.000000 -0.000000 1.000000
vn -1.000000 -0.000000 -0.000000
vn 0.000000 0.000000 -1.000000
s off
f 1//1 5//1 6//1 2//1
f 2//2 6//2 7//2 3//2
f 3//3 7//3 8//3 4//3
f 5//4 1//4 4//4 8//4
