# Blender v2.79 (sub 0) OBJ File: 'Tile_Stairs.blend'
# www.blender.org
o Tile_Stairs_Cube
v 0.500000 -1.000000 -0.500000
v -0.500000 0.000000 0.500000
v -0.500000 0.000000 -0.500000
v -0.500000 -0.333333 0.500000
v -0.500000 -0.333333 -0.500000
v 0.166667 -1.000000 -0.500000
v 0.166667 -1.000000 0.500000
v 0.500000 -1.000000 0.500000
v -0.166667 -0.333333 -0.500000
v 0.166667 -0.666667 -0.500000
v -0.166666 -0.666667 -0.500000
v 0.166666 -0.666667 0.500000
v -0.166667 -0.666667 0.500000
v -0.166667 -0.333333 0.500000
v 0.500000 0.000000 0.500000
v 0.500000 0.000000 -0.500000
vn 1.0000 0.0000 0.0000
vn 0.0000 1.0000 0.0000
vn -1.0000 0.0000 0.0000
vn -0.0000 -0.0000 1.0000
vn 0.0000 0.0000 -1.0000
s off
f 4//1 5//1 3//1 2//1
f 8//2 1//2 6//2 7//2
f 8//3 15//3 16//3 1//3
f 12//1 7//1 6//1 10//1
f 11//2 13//2 12//2 10//2
f 14//1 13//1 11//1 9//1
f 14//2 9//2 5//2 4//2
f 6//4 1//4 10//4
f 11//4 10//4 9//4
f 5//4 9//4 3//4
f 3//4 9//4 16//4
f 9//4 10//4 16//4
f 16//4 10//4 1//4
f 7//5 12//5 8//5
f 13//5 14//5 12//5
f 4//5 2//5 14//5
f 15//5 14//5 2//5
f 14//5 15//5 12//5
f 15//5 8//5 12//5
