# Blender v2.76 (sub 0) OBJ File: 'Tile_Stairs.blend'
# www.blender.org
o Tile_Stairs_Cube
v -0.500000 0.000000 -0.500000
v 0.500000 0.000000 -0.500000
v 0.500000 0.000000 0.500000
v -0.500000 0.000000 0.500000
v 0.500000 1.000000 0.500000
v -0.500000 1.000000 0.500000
v -0.500000 0.333333 -0.500000
v 0.500000 0.333333 -0.500000
v 0.500000 0.333333 0.500000
v 0.500000 0.666667 0.500000
v -0.500000 0.333333 0.500000
v -0.500000 0.666667 0.500000
v -0.500000 0.000000 -0.166667
v -0.500000 0.000000 0.166666
v 0.500000 0.000000 -0.166667
v 0.500000 0.000000 0.166667
v -0.500000 1.000000 0.166667
v 0.500000 1.000000 0.166667
v -0.500000 0.666667 -0.166667
v -0.500000 0.666667 0.166667
v -0.500000 0.333333 -0.166667
v -0.500000 0.333333 0.166667
v 0.500000 0.333333 -0.166666
v 0.500000 0.333333 0.166667
v 0.500000 0.666667 -0.166666
v 0.500000 0.666667 0.166667
vn 0.000000 1.000000 0.000000
vn 1.000000 0.000000 0.000000
vn -0.000000 -0.000000 1.000000
vn -1.000000 0.000000 -0.000000
vn 0.000000 0.000000 -1.000000
s off
f 17//1 6//1 5//1 18//1
f 26//2 18//2 5//2 10//2
f 10//3 5//3 6//3 12//3
f 22//4 14//4 4//4 11//4
f 17//4 20//4 12//4 6//4
f 20//4 22//4 11//4 12//4
f 3//3 9//3 11//3 4//3
f 9//3 10//3 12//3 11//3
f 16//2 24//2 9//2 3//2
f 24//2 26//2 10//2 9//2
f 1//5 7//5 8//5 2//5
f 23//2 25//2 26//2 24//2
f 2//2 8//2 23//2 15//2
f 15//2 23//2 24//2 16//2
f 19//4 21//4 22//4 20//4
f 7//4 1//4 13//4 21//4
f 21//4 13//4 14//4 22//4
f 7//1 21//1 23//1 8//1
f 25//5 23//5 21//5 19//5
f 20//1 26//1 25//1 19//1
f 20//5 17//5 18//5 26//5
