# Blender v2.76 (sub 0) OBJ File: 'UI_Coin.blend'
# www.blender.org
o UI_Coin_Cube
v 0.400000 -0.150000 0.050000
v -0.400000 -0.150000 0.050000
v 0.150000 0.400000 0.050000
v -0.150000 0.400000 0.050000
v 0.400000 0.150000 0.050000
v -0.400000 0.150000 0.050000
v 0.150000 -0.400000 0.050000
v -0.150000 -0.400000 0.050000
v -0.120000 -0.320000 0.050000
v -0.320000 -0.120000 0.050000
v 0.320000 0.120000 0.050000
v 0.120000 0.320000 0.050000
v -0.320000 0.120000 0.050000
v -0.120000 0.320000 0.050000
v 0.320000 -0.120000 0.050000
v 0.120000 -0.320000 0.050000
v -0.108000 -0.288000 0.010000
v -0.288000 -0.108000 0.010000
v 0.288000 0.108000 0.010000
v 0.108000 0.288000 0.010000
v -0.288000 0.108000 0.010000
v -0.108000 0.288000 0.010000
v -0.120000 0.120000 0.010000
v 0.288000 -0.108000 0.010000
v 0.108000 -0.288000 0.010000
v 0.120000 -0.120000 0.010000
v 0.120000 0.120000 0.010000
v -0.120000 -0.120000 0.010000
v 0.060000 -0.250000 0.010000
v 0.060000 0.250000 0.010000
v -0.060000 -0.250000 0.010000
v -0.060000 0.250000 0.010000
v 0.040000 0.230000 0.050000
v 0.040000 -0.230000 0.050000
v -0.040000 -0.230000 0.050000
v -0.040000 0.230000 0.050000
v 0.400000 -0.150000 -0.050000
v -0.400000 -0.150000 -0.050000
v 0.150000 0.400000 -0.050000
v -0.150000 0.400000 -0.050000
v 0.400000 0.150000 -0.050000
v -0.400000 0.150000 -0.050000
v 0.150000 -0.400000 -0.050000
v -0.150000 -0.400000 -0.050000
v -0.120000 -0.320000 -0.050000
v -0.320000 -0.120000 -0.050000
v 0.320000 0.120000 -0.050000
v 0.120000 0.320000 -0.050000
v -0.320000 0.120000 -0.050000
v -0.120000 0.320000 -0.050000
v 0.320000 -0.120000 -0.050000
v 0.120000 -0.320000 -0.050000
v -0.108000 -0.288000 -0.010000
v -0.288000 -0.108000 -0.010000
v 0.288000 0.108000 -0.010000
v 0.108000 0.288000 -0.010000
v -0.288000 0.108000 -0.010000
v -0.108000 0.288000 -0.010000
v -0.120000 0.120000 -0.010000
v 0.288000 -0.108000 -0.010000
v 0.108000 -0.288000 -0.010000
v 0.120000 -0.120000 -0.010000
v 0.120000 0.120000 -0.010000
v -0.120000 -0.120000 -0.010000
v 0.060000 -0.250000 -0.010000
v 0.060000 0.250000 -0.010000
v -0.060000 -0.250000 -0.010000
v -0.060000 0.250000 -0.010000
v 0.040000 0.230000 -0.050000
v 0.040000 -0.230000 -0.050000
v -0.040000 -0.230000 -0.050000
v -0.040000 0.230000 -0.050000
vn 0.000000 0.000000 1.000000
vn 0.558100 0.558100 0.614000
vn 0.558100 -0.558100 0.614000
vn 0.780900 0.000000 0.624700
vn -0.558100 0.558100 0.614000
vn -0.558100 -0.558100 0.614000
vn 0.000000 0.780900 0.624700
vn 0.000000 -0.780900 0.624700
vn -0.780900 0.000000 0.624700
vn -0.894400 0.000000 0.447200
vn 0.000000 0.894400 0.447200
vn 0.894400 0.000000 0.447200
vn 0.000000 -0.894400 0.447200
vn 0.000000 0.000000 -1.000000
vn 1.000000 -0.000000 0.000000
vn 0.558100 0.558100 -0.614000
vn 0.558100 -0.558100 -0.614000
vn 0.780900 0.000000 -0.624700
vn -0.558100 0.558100 -0.614000
vn -0.558100 -0.558100 -0.614000
vn 0.000000 0.780900 -0.624700
vn 0.000000 -0.780900 -0.624700
vn -0.780900 0.000000 -0.624700
vn -0.894400 0.000000 -0.447200
vn 0.000000 0.894400 -0.447200
vn 0.894400 0.000000 -0.447200
vn 0.000000 -0.894400 -0.447200
vn 0.707100 0.707100 0.000000
vn 0.000000 1.000000 0.000000
vn -0.707100 0.707100 0.000000
vn -1.000000 0.000000 0.000000
vn -0.707100 -0.707100 0.000000
vn 0.000000 -1.000000 0.000000
vn 0.707100 -0.707100 0.000000
s off
f 3//1 12//1 11//1 5//1
f 2//1 10//1 13//1 6//1
f 1//1 15//1 16//1 7//1
f 4//1 14//1 12//1 3//1
f 8//1 9//1 10//1 2//1
f 5//1 11//1 15//1 1//1
f 6//1 13//1 14//1 4//1
f 7//1 16//1 9//1 8//1
f 9//2 17//2 18//2 10//2
f 13//3 21//3 22//3 14//3
f 10//4 18//4 21//4 13//4
f 15//5 24//5 25//5 16//5
f 12//6 20//6 19//6 11//6
f 16//7 25//7 17//7 9//7
f 14//8 22//8 20//8 12//8
f 11//9 19//9 24//9 15//9
f 20//1 30//1 27//1
f 24//1 26//1 25//1
f 27//1 30//1 29//1 26//1
f 26//1 29//1 25//1
f 19//1 27//1 26//1 24//1
f 22//1 21//1 23//1
f 20//1 27//1 19//1
f 23//1 21//1 18//1 28//1
f 28//1 18//1 17//1
f 25//1 29//1 31//1 17//1
f 22//1 32//1 30//1 20//1
f 31//10 35//10 36//10 32//10
f 23//1 32//1 22//1
f 32//1 23//1 28//1 31//1
f 17//1 31//1 28//1
f 33//1 36//1 35//1 34//1
f 32//11 36//11 33//11 30//11
f 30//12 33//12 34//12 29//12
f 29//13 34//13 35//13 31//13
f 39//14 41//14 47//14 48//14
f 5//15 1//15 37//15 41//15
f 38//14 42//14 49//14 46//14
f 37//14 43//14 52//14 51//14
f 40//14 39//14 48//14 50//14
f 44//14 38//14 46//14 45//14
f 41//14 37//14 51//14 47//14
f 42//14 40//14 50//14 49//14
f 43//14 44//14 45//14 52//14
f 45//16 46//16 54//16 53//16
f 49//17 50//17 58//17 57//17
f 46//18 49//18 57//18 54//18
f 51//19 52//19 61//19 60//19
f 48//20 47//20 55//20 56//20
f 52//21 45//21 53//21 61//21
f 50//22 48//22 56//22 58//22
f 47//23 51//23 60//23 55//23
f 56//14 63//14 66//14
f 60//14 61//14 62//14
f 63//14 62//14 65//14 66//14
f 62//14 61//14 65//14
f 55//14 60//14 62//14 63//14
f 58//14 59//14 57//14
f 56//14 55//14 63//14
f 59//14 64//14 54//14 57//14
f 64//14 53//14 54//14
f 61//14 53//14 67//14 65//14
f 58//14 56//14 66//14 68//14
f 67//24 68//24 72//24 71//24
f 59//14 58//14 68//14
f 68//14 67//14 64//14 59//14
f 53//14 64//14 67//14
f 69//14 70//14 71//14 72//14
f 68//25 66//25 69//25 72//25
f 66//26 65//26 70//26 69//26
f 65//27 67//27 71//27 70//27
f 3//28 5//28 41//28 39//28
f 4//29 3//29 39//29 40//29
f 4//30 40//30 42//30 6//30
f 6//31 42//31 38//31 2//31
f 2//32 38//32 44//32 8//32
f 8//33 44//33 43//33 7//33
f 7//34 43//34 37//34 1//34
