# Blender v2.76 (sub 0) OBJ File: 'UI_Cloned_Icon.blend'
# www.blender.org
o UI_Clone_Icon_Cube
v 0.205356 0.145317 -0.359278
v -0.099225 -0.042735 -0.359278
v -0.007301 -0.134658 -0.359278
v -0.007301 0.049189 -0.359278
v 0.126924 0.004359 -0.359278
v 0.172570 0.054439 -0.359278
v -0.007301 -0.009773 -0.359278
v 0.071079 -0.011133 -0.359278
v 0.189672 0.041604 -0.359278
v 0.153131 -0.030960 -0.359278
v 0.086141 -0.071334 -0.359278
v -0.007301 -0.075696 -0.359278
v -0.012643 -0.121761 -0.374306
v -0.091670 -0.042735 -0.374306
v -0.012643 0.036292 -0.374306
v -0.012643 -0.070598 -0.374306
v -0.012643 -0.015023 -0.374306
v 0.071760 -0.016488 -0.374306
v 0.129835 -0.000378 -0.374306
v 0.177234 0.051626 -0.374306
v 0.191954 0.092427 -0.374306
v 0.084542 -0.066060 -0.374306
v 0.149053 -0.027180 -0.374306
v 0.184517 0.043246 -0.374306
v 0.103031 -0.291520 -0.109278
v -0.256968 -0.291520 -0.109278
v 0.103031 0.143480 -0.109278
v -0.256968 0.143480 -0.109278
v -0.219468 0.180980 -0.109278
v -0.219468 -0.329020 -0.109278
v 0.065532 0.180980 -0.109278
v 0.065532 -0.329020 -0.109278
v -0.219468 0.143480 -0.116778
v -0.219468 0.143480 -0.101778
v -0.219468 -0.291520 -0.101778
v -0.219468 -0.291520 -0.116778
v 0.065532 0.143480 -0.116778
v 0.065532 0.143480 -0.101778
v 0.065532 -0.291520 -0.101778
v 0.065532 -0.291520 -0.116778
v 0.253032 -0.141520 0.140722
v -0.106968 -0.141520 0.140722
v 0.253032 0.293480 0.140722
v -0.106968 0.293480 0.140722
v -0.069468 0.330980 0.140722
v -0.069468 -0.179020 0.140722
v 0.215532 0.330980 0.140722
v 0.215532 -0.179020 0.140722
v -0.069468 0.293480 0.133222
v -0.069468 0.293480 0.148222
v -0.069468 -0.141520 0.148222
v -0.069468 -0.141520 0.133222
v 0.215532 0.293480 0.133222
v 0.215532 0.293480 0.148222
v 0.215532 -0.141520 0.148222
v 0.215532 -0.141520 0.133222
vt 0.000000 0.000000
vt 0.623931 0.211392
vt 0.355996 0.211542
vt 0.355648 0.235124
vt 0.624263 0.235138
vt 0.356331 0.035814
vt 0.332570 0.035468
vt 0.332401 0.211856
vt 0.332096 0.035298
vt 0.355691 0.035617
vt 0.355986 0.211346
vt 0.332225 0.211687
vt 0.504887 0.990091
vt 0.504888 0.248984
vt 0.990440 0.248984
vt 0.990440 0.990091
vt 0.497032 0.248421
vt 0.497032 0.989528
vt 0.011479 0.989528
vt 0.011479 0.248421
vt 0.624613 0.012081
vt 0.355998 0.012068
vt 0.624266 0.035664
vt 0.647861 0.035350
vt 0.647692 0.211738
vt 0.355349 0.012035
vt 0.623626 0.035828
vt 0.647387 0.035487
vt 0.647516 0.211875
vt 0.623921 0.211556
vt 0.623964 0.012082
vn -0.000000 0.000000 -1.000000
vn -0.666300 -0.666300 -0.335000
vn -0.666300 0.666300 -0.335000
vn 0.942200 0.000000 -0.335000
vn 0.016300 0.942100 -0.335000
vn -0.696400 0.634700 -0.335000
vn -0.886300 0.319800 -0.335000
vn -0.251900 0.907900 -0.335000
vn 0.486400 -0.807000 -0.335000
vn 0.043900 -0.941200 -0.335000
vn 0.841600 -0.423800 -0.335000
vn 0.931600 -0.140900 -0.335000
vn -0.196100 0.000000 0.980600
vn 0.000000 0.196100 0.980600
vn 0.000000 0.196100 -0.980600
vn 0.000000 0.000000 1.000000
vn 0.196100 0.000000 0.980600
vn 0.000000 -0.196100 0.980600
vn 0.192500 0.192500 -0.962300
vn 0.000000 -0.196100 -0.980600
vn 0.192500 -0.192400 -0.962300
vn 0.192400 -0.192400 0.962300
vn -0.192400 -0.192500 0.962300
vn -0.192500 0.192400 -0.962300
vn 0.196100 -0.000000 -0.980600
vn -0.196100 0.000000 -0.980600
vn 0.192500 0.192400 0.962300
vn -0.192500 -0.192400 -0.962300
vn -0.192500 0.192400 0.962300
vn 0.192500 -0.192500 -0.962300
vn -0.192500 -0.192400 0.962300
s off
f 17/1/1 18/1/1 22/1/1 16/1/1
f 19/1/1 20/1/1 24/1/1 23/1/1
f 20/1/1 21/1/1 24/1/1
f 18/1/1 19/1/1 23/1/1 22/1/1
f 14/1/1 16/1/1 13/1/1
f 15/1/1 17/1/1 14/1/1
f 17/1/1 16/1/1 14/1/1
f 14/1/2 13/1/2 3/1/2 2/1/2
f 15/1/3 14/1/3 2/1/3 4/1/3
f 13/1/4 16/1/4 12/1/4 3/1/4
f 18/1/5 17/1/5 7/1/5 8/1/5
f 20/1/6 19/1/6 5/1/6 6/1/6
f 21/1/7 20/1/7 6/1/7 1/1/7
f 19/1/8 18/1/8 8/1/8 5/1/8
f 22/1/9 23/1/9 10/1/9 11/1/9
f 16/1/10 22/1/10 11/1/10 12/1/10
f 23/1/11 24/1/11 9/1/11 10/1/11
f 24/1/12 21/1/12 1/1/12 9/1/12
f 17/1/4 15/1/4 4/1/4 7/1/4
f 35/2/13 34/3/13 28/4/13 26/5/13
f 38/6/14 31/7/14 29/8/14 34/3/14
f 31/9/15 37/10/15 33/11/15 29/12/15
f 37/13/1 40/14/1 36/15/1 33/16/1
f 39/17/16 38/18/16 34/19/16 35/20/16
f 25/21/17 27/22/17 38/6/17 39/23/17
f 32/24/18 39/23/18 35/2/18 30/25/18
f 27/26/19 37/10/19 31/9/19
f 40/27/20 32/28/20 30/29/20 36/30/20
f 25/31/21 32/28/21 40/27/21
f 25/21/22 39/23/22 32/24/22
f 30/25/23 35/2/23 26/5/23
f 29/12/24 33/11/24 28/4/24
f 27/26/25 25/31/25 40/27/25 37/10/25
f 33/11/26 36/30/26 26/5/26 28/4/26
f 27/22/27 31/7/27 38/6/27
f 36/30/28 30/29/28 26/5/28
f 34/3/29 29/8/29 28/4/29
f 51/2/13 50/3/13 44/4/13 42/5/13
f 54/6/14 47/7/14 45/8/14 50/3/14
f 47/9/15 53/10/15 49/11/15 45/12/15
f 53/13/1 56/14/1 52/15/1 49/16/1
f 55/17/16 54/18/16 50/19/16 51/20/16
f 41/21/17 43/22/17 54/6/17 55/23/17
f 48/24/18 55/23/18 51/2/18 46/25/18
f 43/26/19 53/10/19 47/9/19
f 56/27/20 48/28/20 46/29/20 52/30/20
f 41/31/30 48/28/30 56/27/30
f 41/21/22 55/23/22 48/24/22
f 46/25/31 51/2/31 42/5/31
f 45/12/24 49/11/24 44/4/24
f 43/26/25 41/31/25 56/27/25 53/10/25
f 49/11/26 52/30/26 42/5/26 44/4/26
f 43/22/27 47/7/27 54/6/27
f 52/30/28 46/29/28 42/5/28
f 50/3/29 45/8/29 44/4/29
