# Blender v2.79 (sub 0) OBJ File: 'UI_Drawer.blend'
# www.blender.org
o UI_Drawer_Cube.001
v 0.000000 -5.000000 0.500000
v 0.000000 0.250000 0.500000
v 0.000000 -5.000000 0.000000
v 0.000000 0.000000 0.000000
v 15.000000 -5.000000 0.500000
v 15.000000 0.250000 0.500000
v 15.000000 -5.000000 0.000000
v 15.000000 0.000000 0.000000
v 15.000000 0.500000 0.500000
v 0.000000 0.250000 -0.500000
v 15.000000 0.250000 -0.500000
v 0.000000 0.500000 0.500000
v 0.000000 0.500000 -0.500000
v 15.000000 0.500000 -0.500000
v 4.000000 0.500000 -0.500000
v 4.000000 0.500000 0.500000
v 0.250000 0.500000 0.500000
v 0.250000 0.500000 -0.500000
v 0.500000 1.500000 -0.500000
v 3.750000 1.500000 -0.500000
v 3.750000 1.500000 0.500000
v 0.500000 1.500000 0.500000
v 0.000000 0.618231 0.500000
v 0.000000 0.618231 -0.350000
v 15.000000 0.618231 -0.350000
v 15.000000 0.618231 0.500000
v 4.092312 0.618231 -0.350000
v 0.157688 0.618231 0.500000
v 4.092312 0.618231 0.500000
v 0.157688 0.618231 -0.350000
v 0.407688 1.618231 -0.350000
v 3.842312 1.618231 -0.350000
v 3.842312 1.618231 0.500000
v 0.407688 1.618231 0.500000
vn -1.0000 0.0000 0.0000
vn 0.0000 0.0000 -1.0000
vn 1.0000 0.0000 0.0000
vn 0.0000 0.0000 1.0000
vn 0.0000 -1.0000 0.0000
vn 0.0000 -0.8944 -0.4472
vn -0.0000 0.7854 -0.6190
vn 0.7619 0.1905 -0.6190
vn 0.0000 1.0000 0.0000
vn -0.9701 0.2425 0.0000
vn 0.9701 0.2425 0.0000
vn -0.7619 0.1905 -0.6190
s off
f 1//1 2//1 4//1 3//1
f 3//2 4//2 8//2 7//2
f 7//3 8//3 6//3 5//3
f 5//4 6//4 2//4 1//4
f 3//5 7//5 5//5 1//5
f 6//3 8//3 11//3
f 10//1 2//1 12//1 13//1
f 4//1 2//1 10//1
f 9//3 14//3 25//3 26//3
f 8//6 4//6 10//6 11//6
f 16//4 17//4 2//4
f 9//4 16//4 6//4
f 6//3 11//3 14//3 9//3
f 14//7 15//7 27//7 25//7
f 17//4 22//4 34//4 28//4
f 12//4 17//4 28//4 23//4
f 12//4 2//4 17//4
f 15//8 20//8 32//8 27//8
f 2//4 6//4 16//4
f 22//4 17//4 16//4 21//4
f 14//2 11//2 15//2
f 11//2 10//2 15//2
f 10//2 13//2 18//2
f 15//2 10//2 18//2
f 19//2 20//2 15//2 18//2
f 30//9 24//9 23//9 28//9
f 25//9 27//9 29//9 26//9
f 30//10 28//10 34//10 31//10
f 32//9 31//9 34//9 33//9
f 29//11 27//11 32//11 33//11
f 13//1 12//1 23//1 24//1
f 18//7 13//7 24//7 30//7
f 19//12 18//12 30//12 31//12
f 16//4 9//4 26//4 29//4
f 22//4 21//4 33//4 34//4
f 21//4 16//4 29//4 33//4
f 20//7 19//7 31//7 32//7
