# Blender v2.76 (sub 0) OBJ File: 'UI_FullHeart.blend'
# www.blender.org
o UI_FullHeart_Cube
v -0.344243 0.022912 -0.060000
v -0.343059 0.179755 -0.060000
v -0.108209 0.346358 -0.060000
v -0.213807 0.345182 -0.060000
v 0.344243 0.022912 -0.060000
v 0.343059 0.179755 -0.060000
v 0.213807 0.345182 -0.060000
v -0.000000 -0.319316 -0.060000
v 0.108209 0.346358 -0.060000
v -0.000000 0.219530 -0.060000
v -0.344243 0.022912 0.059999
v -0.343059 0.179755 0.059999
v -0.108209 0.346358 0.059999
v -0.213807 0.345182 0.059999
v 0.344243 0.022912 0.060000
v 0.343059 0.179755 0.060000
v 0.213807 0.345182 0.060000
v -0.000000 -0.319316 0.059999
v 0.108209 0.346358 0.060000
v 0.000000 0.219530 0.060000
v -0.400000 0.000931 -0.000000
v -0.399668 0.199444 -0.000000
v -0.083387 0.400855 -0.000000
v -0.240399 0.398840 -0.000000
v 0.400000 0.000931 -0.000000
v 0.399668 0.199444 0.000000
v 0.240399 0.398840 -0.000000
v -0.000000 -0.399145 -0.000000
v 0.083387 0.400855 -0.000000
v 0.000000 0.295367 -0.000000
vn -0.009000 0.742700 -0.669500
vn 0.587600 0.484600 -0.647900
vn -0.730000 0.003100 -0.683500
vn 0.009000 0.742700 -0.669500
vn 0.517400 -0.518800 -0.680600
vn -0.517400 -0.518800 -0.680600
vn 0.000000 0.000000 -1.000000
vn -0.000000 -0.000000 1.000000
vn -0.576400 0.455800 0.678200
vn -0.517400 -0.518800 0.680600
vn 0.730000 0.003100 0.683500
vn 0.009000 0.742700 0.669500
vn -0.587600 0.484600 -0.647900
vn -0.576400 0.455800 -0.678200
vn 0.517400 -0.518800 0.680600
vn 0.730000 0.003100 -0.683500
vn -0.587600 0.484600 0.647900
vn 0.587600 0.484600 0.647900
vn 0.576400 0.455800 -0.678200
vn -0.009000 0.742700 0.669500
vn -0.730000 0.003100 0.683500
vn 0.576400 0.455800 0.678200
s off
f 3//1 4//1 24//1 23//1
f 10//2 3//2 23//2 30//2
f 2//3 1//3 21//3 22//3
f 7//4 9//4 29//4 27//4
f 8//5 5//5 25//5 28//5
f 1//6 8//6 28//6 21//6
f 7//7 6//7 10//7 9//7
f 3//7 10//7 2//7 4//7
f 10//7 6//7 2//7
f 2//7 6//7 5//7 1//7
f 8//7 1//7 5//7
f 13//8 14//8 12//8 20//8
f 17//8 19//8 20//8 16//8
f 20//8 12//8 16//8
f 12//8 11//8 15//8 16//8
f 18//8 15//8 11//8
f 12//9 14//9 24//9 22//9
f 18//10 11//10 21//10 28//10
f 16//11 15//11 25//11 26//11
f 19//12 17//12 27//12 29//12
f 9//13 10//13 30//13 29//13
f 4//14 2//14 22//14 24//14
f 15//15 18//15 28//15 25//15
f 5//16 6//16 26//16 25//16
f 20//17 19//17 29//17 30//17
f 13//18 20//18 30//18 23//18
f 6//19 7//19 27//19 26//19
f 14//20 13//20 23//20 24//20
f 11//21 12//21 22//21 21//21
f 17//22 16//22 26//22 27//22
