# Blender v2.76 (sub 0) OBJ File: 'UI_Gem.blend'
# www.blender.org
o UI_Gem_Cylinder
v 0.000000 -0.300000 0.000000
v -0.266400 0.250000 0.000000
v -0.133200 0.250000 -0.230709
v 0.133200 0.250000 -0.230709
v 0.266400 0.250000 0.000000
v 0.133200 0.250000 0.230709
v -0.133200 0.250000 0.230709
v -0.400000 0.105000 0.000000
v -0.200000 0.105000 -0.346410
v 0.200000 0.105000 -0.346410
v 0.400000 0.105000 0.000000
v 0.200000 0.105000 0.346410
v -0.200000 0.105000 0.346410
vn -0.676900 0.623700 -0.390800
vn 0.000000 0.623700 -0.781700
vn 0.676900 0.623700 -0.390800
vn 0.676900 0.623700 0.390800
vn 0.000000 1.000000 -0.000000
vn -0.676900 0.623700 0.390800
vn 0.000000 0.623700 0.781700
vn 0.000000 -0.650000 0.759900
vn -0.658100 -0.650000 0.380000
vn 0.658100 -0.650000 0.380000
vn 0.658100 -0.650000 -0.380000
vn 0.000000 -0.650000 -0.759900
vn -0.658100 -0.650000 -0.380000
s off
f 8//1 2//1 3//1 9//1
f 9//2 3//2 4//2 10//2
f 10//3 4//3 5//3 11//3
f 11//4 5//4 6//4 12//4
f 3//5 2//5 7//5 6//5 5//5 4//5
f 13//6 7//6 2//6 8//6
f 12//7 6//7 7//7 13//7
f 1//8 12//8 13//8
f 1//9 13//9 8//9
f 1//10 11//10 12//10
f 1//11 10//11 11//11
f 1//12 9//12 10//12
f 1//13 8//13 9//13
