# Blender v2.79 (sub 0) OBJ File: 'Morphy.blend'
# www.blender.org
o Morphy_Cylinder.003
v 0.000000 0.000000 -0.500000
v -0.469846 1.750000 -0.171010
v 0.475528 0.000000 -0.154508
v 0.017450 1.750000 -0.499695
v 0.293893 0.000000 0.404509
v 0.480631 1.750000 -0.137819
v -0.293893 0.000000 0.404508
v 0.279596 1.750000 0.414519
v -0.475528 0.000000 -0.154509
v -0.307831 1.750000 0.394005
v -0.143394 0.875000 -0.204788
v 0.150454 0.875000 -0.199659
v 0.236380 0.875000 0.081392
v -0.004363 0.875000 0.249962
v -0.239076 0.875000 0.073093
vn 0.0000 1.0000 -0.0000
vn 0.8815 -0.3464 0.3208
vn 0.0000 -1.0000 0.0000
vn 0.5775 -0.3464 -0.7392
vn -0.5246 -0.3464 -0.7777
vn -0.9017 -0.3464 0.2586
vn -0.0327 -0.3464 0.9375
vn -0.5514 0.3464 -0.7589
vn 0.5514 0.3464 -0.7589
vn 0.8922 0.3464 0.2899
vn -0.0000 0.3464 0.9381
vn -0.8922 0.3464 0.2899
vn 0.0174 -0.0451 -0.9988
vn 0.0174 0.0451 -0.9988
vn -0.9446 -0.0451 -0.3252
vn -0.9446 0.0451 -0.3252
vn -0.6012 -0.0451 0.7978
vn -0.6012 0.0451 0.7978
vn 0.5730 -0.0451 0.8183
vn 0.5730 0.0451 0.8183
vn 0.9553 -0.0451 -0.2921
vn 0.9553 0.0451 -0.2921
s off
f 4//1 2//1 10//1 8//1 6//1
f 8//2 14//2 6//2
f 1//3 3//3 5//3 7//3 9//3
f 6//4 13//4 4//4
f 4//5 12//5 2//5
f 2//6 11//6 10//6
f 10//7 15//7 8//7
f 9//8 15//8 1//8
f 1//9 11//9 3//9
f 3//10 12//10 5//10
f 5//11 13//11 7//11
f 7//12 14//12 9//12
f 12//13 3//13 11//13
f 11//14 2//14 12//14
f 11//15 1//15 15//15
f 15//16 10//16 11//16
f 15//17 9//17 14//17
f 8//18 15//18 14//18
f 14//19 7//19 13//19
f 14//20 13//20 6//20
f 13//21 5//21 12//21
f 12//22 4//22 13//22
