# Blender v2.79 (sub 0) OBJ File: 'Morphy.blend'
# www.blender.org
o Morphy_Cylinder.003
v 0.000000 0.000000 -0.500000
v 0.475528 0.000000 -0.154508
v 0.293893 0.000000 0.404509
v -0.293893 0.000000 0.404508
v -0.475528 0.000000 -0.154509
v -0.134432 0.619836 -0.191989
v 0.141050 0.619836 -0.187180
v 0.221606 0.619836 0.076305
v -0.004090 0.619836 0.234339
v -0.224134 0.619836 0.068525
v -0.200346 1.152965 -0.130063
v -0.187390 1.152965 0.148624
v 0.081660 1.152965 0.222422
v 0.234986 1.152965 -0.010656
v 0.060698 1.152965 -0.228503
v -0.159163 1.652965 0.000008
v -0.045016 1.652965 0.147902
v 0.130914 1.652965 0.085043
v 0.125497 1.652965 -0.101700
v -0.053781 1.652965 -0.154255
vn 0.0000 -1.0000 0.0000
vn -0.5195 0.4679 -0.7150
vn 0.5195 0.4679 -0.7150
vn 0.8405 0.4679 0.2731
vn -0.0000 0.4679 0.8838
vn -0.8405 0.4679 0.2731
vn 0.0174 -0.0432 -0.9989
vn -0.9446 -0.0432 -0.3253
vn -0.6013 -0.0432 0.7979
vn 0.5730 -0.0432 0.8184
vn 0.9554 -0.0432 -0.2921
vn -0.5979 0.1139 0.7934
vn 0.8293 -0.1212 0.5455
vn 0.5695 0.1184 0.8134
vn -0.2624 -0.1257 0.9567
vn -0.9394 0.1133 -0.3235
vn -0.9907 -0.1278 0.0461
vn 0.0173 0.1175 -0.9929
vn -0.3501 -0.1247 -0.9284
vn 0.9493 0.1206 -0.2902
vn 0.7751 -0.1206 -0.6202
vn -0.9608 0.2736 0.0447
vn -0.2540 0.2794 0.9260
vn 0.8039 0.2723 0.5288
vn 0.7536 0.2621 -0.6029
vn -0.3404 0.2629 -0.9028
vn -0.7882 -0.0933 0.6083
vn 0.3350 -0.0940 0.9375
vn 0.9940 -0.1058 -0.0288
vn 0.2795 -0.1124 -0.9535
vn -0.8212 -0.1047 -0.5610
vn -0.0000 1.0000 0.0000
s off
f 1//1 2//1 3//1 4//1 5//1
f 5//2 10//2 1//2
f 1//3 6//3 2//3
f 2//4 7//4 3//4
f 3//5 8//5 4//5
f 4//6 9//6 5//6
f 7//7 2//7 6//7
f 6//8 1//8 10//8
f 10//9 5//9 9//9
f 9//10 4//10 8//10
f 8//11 3//11 7//11
f 9//12 13//12 10//12
f 9//13 14//13 13//13
f 8//14 14//14 9//14
f 13//15 12//15 10//15
f 10//16 12//16 6//16
f 12//17 11//17 6//17
f 6//18 11//18 7//18
f 11//19 15//19 7//19
f 7//20 15//20 8//20
f 14//21 8//21 15//21
f 11//22 12//22 17//22
f 13//23 18//23 12//23
f 14//24 19//24 13//24
f 14//25 15//25 20//25
f 11//26 16//26 15//26
f 17//27 16//27 11//27
f 18//28 17//28 12//28
f 19//29 18//29 13//29
f 20//30 19//30 14//30
f 16//31 20//31 15//31
f 16//32 17//32 18//32 19//32 20//32
