# Blender v2.76 (sub 0) OBJ File: 'Piece_Pawn.blend'
# www.blender.org
o Piece_Pawn_Cylinder.002
v 0.000000 0.000000 -0.350000
v -0.000000 1.150000 -0.070000
v 0.303109 0.000000 -0.175000
v 0.060622 1.150000 -0.035000
v 0.303109 0.000000 0.175000
v 0.060622 1.150000 0.035000
v -0.000000 0.000000 0.350000
v -0.000000 1.150000 0.070000
v -0.303109 0.000000 0.175000
v -0.060622 1.150000 0.035000
v -0.303109 0.000000 -0.175000
v -0.060622 1.150000 -0.035000
v 0.000000 0.100000 -0.350000
v -0.000000 0.100000 -0.238000
v -0.000000 0.750000 -0.070000
v -0.000000 0.825000 -0.173250
v -0.000000 0.950000 -0.236250
v -0.000000 1.075000 -0.173250
v 0.150039 1.075000 -0.086625
v 0.204599 0.950000 -0.118125
v 0.150039 0.825000 -0.086625
v 0.060622 0.750000 -0.035000
v 0.206114 0.100000 -0.119000
v 0.303109 0.100000 -0.175000
v 0.150039 1.075000 0.086625
v 0.204598 0.950000 0.118125
v 0.150039 0.825000 0.086625
v 0.060622 0.750000 0.035000
v 0.206114 0.100000 0.119000
v 0.303109 0.100000 0.175000
v -0.000000 1.075000 0.173250
v -0.000000 0.950000 0.236250
v -0.000000 0.825000 0.173250
v -0.000000 0.750000 0.070000
v -0.000000 0.100000 0.238000
v -0.000000 0.100000 0.350000
v -0.150039 1.075000 0.086625
v -0.204599 0.950000 0.118125
v -0.150039 0.825000 0.086625
v -0.060622 0.750000 0.035000
v -0.206114 0.100000 0.119000
v -0.303109 0.100000 0.175000
v -0.150039 1.075000 -0.086625
v -0.204599 0.950000 -0.118125
v -0.150039 0.825000 -0.086625
v -0.060622 0.750000 -0.035000
v -0.206114 0.100000 -0.119000
v -0.303109 0.100000 -0.175000
vn 0.321300 0.766200 -0.556500
vn 0.642600 0.766200 0.000000
vn 0.321300 0.766200 0.556500
vn -0.321300 0.766200 0.556500
vn 0.000000 1.000000 0.000000
vn -0.321300 0.766200 -0.556500
vn -0.642600 0.766200 0.000000
vn 0.000000 -1.000000 0.000000
vn -1.000000 0.000000 0.000000
vn -0.975900 0.218400 0.000000
vn -0.642600 -0.766200 0.000000
vn -0.916500 -0.400000 0.000000
vn -0.916500 0.400000 0.000000
vn -0.500000 0.000000 -0.866000
vn -0.487900 0.218400 -0.845100
vn -0.321300 -0.766200 -0.556500
vn -0.458300 -0.400000 -0.793700
vn -0.458300 0.400000 -0.793700
vn -0.500000 0.000000 0.866000
vn -0.487900 0.218400 0.845100
vn -0.321300 -0.766200 0.556500
vn -0.458300 -0.400000 0.793700
vn -0.458300 0.400000 0.793700
vn 0.500000 0.000000 0.866000
vn 0.487900 0.218400 0.845100
vn 0.321300 -0.766200 0.556500
vn 0.458300 -0.400000 0.793700
vn 0.458300 0.400000 0.793700
vn 1.000000 0.000000 0.000000
vn 0.975900 0.218400 0.000000
vn 0.642600 -0.766200 0.000000
vn 0.916500 -0.400000 0.000000
vn 0.916500 0.400000 0.000000
vn 0.500000 0.000000 -0.866000
vn 0.487900 0.218400 -0.845100
vn 0.321300 -0.766200 -0.556500
vn 0.458300 -0.400000 -0.793700
vn 0.458300 0.400000 -0.793700
s off
f 18//1 2//1 4//1 19//1
f 19//2 4//2 6//2 25//2
f 25//3 6//3 8//3 31//3
f 31//4 8//4 10//4 37//4
f 4//5 2//5 12//5 10//5 8//5 6//5
f 43//6 12//6 2//6 18//6
f 37//7 10//7 12//7 43//7
f 1//8 3//8 5//8 7//8 9//8 11//8
f 9//9 42//9 48//9 11//9
f 42//5 41//5 47//5 48//5
f 41//10 40//10 46//10 47//10
f 40//11 39//11 45//11 46//11
f 39//12 38//12 44//12 45//12
f 38//13 37//13 43//13 44//13
f 11//14 48//14 13//14 1//14
f 48//5 47//5 14//5 13//5
f 47//15 46//15 15//15 14//15
f 46//16 45//16 16//16 15//16
f 45//17 44//17 17//17 16//17
f 44//18 43//18 18//18 17//18
f 7//19 36//19 42//19 9//19
f 36//5 35//5 41//5 42//5
f 35//20 34//20 40//20 41//20
f 34//21 33//21 39//21 40//21
f 33//22 32//22 38//22 39//22
f 32//23 31//23 37//23 38//23
f 5//24 30//24 36//24 7//24
f 30//5 29//5 35//5 36//5
f 29//25 28//25 34//25 35//25
f 28//26 27//26 33//26 34//26
f 27//27 26//27 32//27 33//27
f 26//28 25//28 31//28 32//28
f 3//29 24//29 30//29 5//29
f 24//5 23//5 29//5 30//5
f 23//30 22//30 28//30 29//30
f 22//31 21//31 27//31 28//31
f 21//32 20//32 26//32 27//32
f 20//33 19//33 25//33 26//33
f 1//34 13//34 24//34 3//34
f 13//5 14//5 23//5 24//5
f 14//35 15//35 22//35 23//35
f 15//36 16//36 21//36 22//36
f 16//37 17//37 20//37 21//37
f 17//38 18//38 19//38 20//38
