# Blender v2.76 (sub 0) OBJ File: 'Piece_Rook.blend'
# www.blender.org
o Piece_Rook_Cube
v 0.500000 0.000000 -0.500000
v 0.500000 0.000000 0.500000
v -0.500000 0.000000 0.500000
v -0.500000 0.000000 -0.500000
v 0.375000 1.400000 -0.375000
v 0.375000 1.400000 0.375000
v -0.375000 1.400000 0.375000
v 0.500000 0.100000 -0.500000
v 0.250000 0.200000 -0.250000
v 0.250003 0.940000 -0.250000
v 0.375000 1.240000 -0.375000
v 0.500000 0.100000 0.500000
v 0.250000 0.200000 0.250000
v 0.250000 0.940000 0.250000
v 0.375000 1.240000 0.375000
v -0.500000 0.100000 0.500000
v -0.250000 0.200000 0.250000
v -0.250000 0.940000 0.250000
v -0.375000 1.240000 0.375000
v -0.500000 0.100000 -0.500000
v -0.250000 0.200000 -0.250000
v -0.250000 0.940000 -0.250000
v -0.375000 1.240000 -0.375000
v -0.375000 1.400000 -0.375000
v 0.375002 1.400000 -0.187500
v 0.375000 1.400000 0.187500
v 0.187500 1.400000 -0.375000
v -0.187500 1.400000 -0.375000
v 0.187500 1.400000 0.375000
v -0.187500 1.400000 0.375000
v -0.375000 1.400000 0.187500
v -0.374998 1.400000 -0.187500
v 0.187502 1.400000 -0.187500
v 0.187500 1.400000 0.187500
v -0.187498 1.400000 -0.187500
v -0.187500 1.400000 0.187500
v 0.375002 1.240000 -0.187500
v 0.375000 1.240000 0.187500
v 0.187500 1.240000 -0.375000
v -0.187500 1.240000 -0.375000
v -0.375000 1.240000 0.187500
v -0.374998 1.240000 -0.187500
v 0.187500 1.240000 0.375000
v -0.187500 1.240000 0.375000
v 0.375000 1.600000 0.187500
v 0.375000 1.600000 0.375000
v -0.187500 1.600000 -0.375000
v -0.375000 1.600000 -0.375000
v -0.187500 1.600000 0.375000
v -0.375000 1.600000 0.375000
v -0.374998 1.600000 -0.187500
v 0.375000 1.600000 -0.375000
v 0.375002 1.600000 -0.187500
v 0.187500 1.600000 -0.375000
v 0.187500 1.600000 0.375000
v -0.375000 1.600000 0.187500
v 0.187500 1.600000 0.187500
v 0.187502 1.600000 -0.187500
v -0.187500 1.600000 0.187500
v -0.187498 1.600000 -0.187500
v 0.187502 1.340000 -0.187500
v -0.187498 1.340000 -0.187500
v -0.187500 1.340000 0.187500
v 0.187500 1.340000 0.187500
vn -1.000000 0.000000 -0.000000
vn 0.000000 0.000000 -1.000000
vn -0.923100 -0.384600 -0.000000
vn 0.000000 0.928500 -0.371400
vn -0.371400 0.928500 -0.000000
vn -0.000000 -0.384600 0.923100
vn -0.000000 -0.000000 1.000000
vn -0.000000 0.928500 0.371400
vn 0.923100 -0.384600 0.000000
vn 1.000000 0.000000 0.000000
vn 0.371400 0.928500 0.000000
vn 0.000000 -0.384600 -0.923100
vn 0.000000 1.000000 0.000000
s off
f 34//1 29//1 55//1 57//1
f 8//2 1//2 4//2 20//2
f 18//3 19//3 41//3 42//3 23//3 22//3
f 10//2 9//2 21//2 22//2
f 9//4 8//4 20//4 21//4
f 3//1 16//1 20//1 4//1
f 16//5 17//5 21//5 20//5
f 17//1 18//1 22//1 21//1
f 14//6 15//6 43//6 44//6 19//6 18//6
f 2//7 12//7 16//7 3//7
f 12//8 13//8 17//8 16//8
f 13//7 14//7 18//7 17//7
f 10//9 11//9 37//9 38//9 15//9 14//9
f 1//10 8//10 12//10 2//10
f 8//11 9//11 13//11 12//11
f 9//10 10//10 14//10 13//10
f 10//12 22//12 23//12 40//12 39//12 11//12
f 36//2 31//2 56//2 59//2
f 25//10 5//10 52//10 53//10
f 27//2 5//2 11//2 39//2
f 31//1 41//1 19//1 7//1
f 7//7 19//7 44//7 30//7
f 29//7 43//7 15//7 6//7
f 6//10 15//10 38//10 26//10
f 25//10 37//10 11//10 5//10
f 26//10 38//10 37//10 25//10
f 28//2 27//2 39//2 40//2
f 32//1 42//1 41//1 31//1
f 30//7 44//7 43//7 29//7
f 28//13 35//13 33//13 27//13
f 36//2 34//2 64//2 63//2
f 25//13 33//13 34//13 26//13
f 29//13 34//13 36//13 30//13
f 31//13 36//13 35//13 32//13
f 59//13 56//13 50//13 49//13
f 45//13 57//13 55//13 46//13
f 52//13 54//13 58//13 53//13
f 47//13 48//13 51//13 60//13
f 27//1 33//1 58//1 54//1
f 5//2 27//2 54//2 52//2
f 30//10 36//10 59//10 49//10
f 35//10 28//10 47//10 60//10
f 29//7 6//7 46//7 55//7
f 6//10 26//10 45//10 46//10
f 33//7 25//7 53//7 58//7
f 26//2 34//2 57//2 45//2
f 31//1 7//1 50//1 56//1
f 7//7 30//7 49//7 50//7
f 32//7 35//7 60//7 51//7
f 62//13 63//13 64//13 61//13
f 33//7 35//7 62//7 61//7
f 34//1 33//1 61//1 64//1
f 35//10 36//10 63//10 62//10
f 24//1 32//1 51//1 48//1
f 24//2 28//2 40//2 23//2
f 24//1 23//1 42//1 32//1
f 28//2 24//2 48//2 47//2
l 14 38
l 10 37
l 14 43
l 18 44
l 18 41
l 22 42
l 22 40
l 10 39
