# Blender v2.76 (sub 0) OBJ File: 'Piece_King.blend'
# www.blender.org
o Piece_King_Cylinder
v 0.000000 0.000000 -0.450000
v 0.389711 0.000000 -0.225000
v 0.389711 0.000000 0.225000
v -0.000000 0.000000 0.450000
v -0.389711 0.000000 0.225000
v -0.389711 0.000000 -0.225000
v 0.000000 0.100000 -0.450000
v -0.000000 0.150000 -0.270000
v -0.000000 0.900000 -0.180000
v -0.000000 1.150000 -0.324000
v -0.000000 1.250000 -0.293774
v -0.000000 1.300000 -0.131473
v 0.100000 1.300000 -0.050386
v 0.254415 1.250000 -0.146887
v 0.280592 1.150000 -0.162000
v 0.155885 0.900000 -0.090000
v 0.233827 0.150000 -0.135000
v 0.389711 0.100000 -0.225000
v 0.100000 1.900000 0.050000
v 0.100000 1.300000 0.050000
v 0.254415 1.250000 0.146887
v 0.280592 1.150000 0.162000
v 0.155885 0.900000 0.090000
v 0.233827 0.150000 0.135000
v 0.389711 0.100000 0.225000
v 0.100000 1.900000 -0.050386
v -0.000000 1.300000 0.132400
v -0.000000 1.250000 0.293774
v -0.000000 1.150000 0.324000
v -0.000000 0.900000 0.180000
v -0.000000 0.150000 0.270000
v -0.000000 0.100000 0.450000
v -0.100000 1.900000 -0.050386
v -0.100000 1.300000 0.050000
v -0.254416 1.250000 0.146887
v -0.280592 1.150000 0.162000
v -0.155885 0.900000 0.090000
v -0.233827 0.150000 0.135000
v -0.389711 0.100000 0.225000
v -0.100000 1.900000 0.050000
v -0.100000 1.300000 -0.048841
v -0.254416 1.250000 -0.146887
v -0.280592 1.150000 -0.162000
v -0.155885 0.900000 -0.090000
v -0.233827 0.150000 -0.135000
v -0.389711 0.100000 -0.225000
v -0.100000 1.750001 0.050000
v -0.100000 1.573435 0.050000
v -0.100000 1.573435 -0.049356
v -0.100000 1.750001 -0.049871
v 0.100000 1.750001 0.050000
v 0.100000 1.573435 0.050000
v 0.100000 1.750001 -0.050386
v 0.100000 1.573435 -0.050386
v 0.300000 1.749996 0.050000
v 0.300000 1.573430 0.050000
v 0.300000 1.749996 -0.050386
v 0.300000 1.573430 -0.050386
v -0.300000 1.750001 0.050000
v -0.300000 1.573435 0.050000
v -0.300000 1.573435 -0.049356
v -0.300000 1.750001 -0.049871
vn 0.000000 -1.000000 0.000000
vn -1.000000 0.000000 0.000000
vn -0.305400 0.952200 0.000000
vn -0.994600 0.103400 0.000000
vn -0.894800 -0.446400 0.000000
vn -0.967400 0.253200 0.000000
vn -0.308100 0.951400 0.000000
vn -0.500000 0.000000 -0.866000
vn -0.152700 0.952200 -0.264500
vn -0.497300 0.103400 -0.861400
vn -0.447400 -0.446400 -0.775000
vn -0.483700 0.253200 -0.837800
vn -0.170600 0.949500 -0.263500
vn -0.500000 0.000000 0.866000
vn -0.152700 0.952200 0.264500
vn -0.497300 0.103400 0.861400
vn -0.447400 -0.446400 0.775000
vn -0.483700 0.253200 0.837800
vn -0.171400 0.948900 0.264900
vn 0.000000 1.000000 0.000000
vn 0.500000 0.000000 0.866000
vn 0.152700 0.952200 0.264500
vn 0.497300 0.103400 0.861400
vn 0.447400 -0.446400 0.775000
vn 0.483700 0.253200 0.837800
vn 0.171400 0.948900 0.264900
vn 1.000000 0.000000 0.000000
vn 0.305400 0.952200 0.000000
vn 0.994600 0.103400 0.000000
vn 0.894800 -0.446400 0.000000
vn 0.967400 0.253200 0.000000
vn 0.308100 0.951400 -0.000000
vn 0.500000 0.000000 -0.866000
vn 0.152700 0.952200 -0.264500
vn 0.497300 0.103400 -0.861400
vn 0.447400 -0.446400 -0.775000
vn 0.483700 0.253200 -0.837800
vn 0.170500 0.949100 -0.265000
vn -0.000000 0.000000 1.000000
vn -0.006400 -0.000900 -1.000000
vn -0.001300 -0.001700 -1.000000
vn -0.003900 -0.001500 -1.000000
vn 0.000000 -0.002900 -1.000000
vn 0.000000 0.000000 -1.000000
s off
f 1//1 2//1 3//1 4//1 5//1 6//1
f 5//2 39//2 46//2 6//2
f 39//3 38//3 45//3 46//3
f 38//4 37//4 44//4 45//4
f 37//5 36//5 43//5 44//5
f 36//6 35//6 42//6 43//6
f 35//7 34//7 41//7 42//7
f 6//8 46//8 7//8 1//8
f 46//9 45//9 8//9 7//9
f 45//10 44//10 9//10 8//10
f 44//11 43//11 10//11 9//11
f 43//12 42//12 11//12 10//12
f 42//13 41//13 12//13 11//13
f 4//14 32//14 39//14 5//14
f 32//15 31//15 38//15 39//15
f 31//16 30//16 37//16 38//16
f 30//17 29//17 36//17 37//17
f 29//18 28//18 35//18 36//18
f 28//19 27//19 34//19 35//19
f 40//20 19//20 26//20 33//20
f 3//21 25//21 32//21 4//21
f 25//22 24//22 31//22 32//22
f 24//23 23//23 30//23 31//23
f 23//24 22//24 29//24 30//24
f 22//25 21//25 28//25 29//25
f 21//26 20//26 27//26 28//26
f 2//27 18//27 25//27 3//27
f 18//28 17//28 24//28 25//28
f 17//29 16//29 23//29 24//29
f 16//30 15//30 22//30 23//30
f 15//31 14//31 21//31 22//31
f 14//32 13//32 20//32 21//32
f 27//20 20//20 34//20
f 1//33 7//33 18//33 2//33
f 7//34 8//34 17//34 18//34
f 8//35 9//35 16//35 17//35
f 9//36 10//36 15//36 16//36
f 10//37 11//37 14//37 15//37
f 11//38 12//38 13//38 14//38
f 12//20 41//20 13//20
f 50//2 47//2 40//2 33//2
f 52//39 48//39 34//39 20//39
f 31//1 38//1 45//1 8//1 17//1 24//1
f 54//40 13//40 41//40 49//40
f 52//27 20//27 13//27 54//27
f 19//27 51//27 53//27 26//27
f 52//1 54//1 58//1 56//1
f 26//41 53//41 50//41 33//41
f 53//42 54//42 49//42 50//42
f 19//39 40//39 47//39 51//39
f 51//39 47//39 48//39 52//39
f 41//2 34//2 48//2 49//2
f 50//43 49//43 61//43 62//43
f 55//27 56//27 58//27 57//27
f 54//44 53//44 57//44 58//44
f 51//39 52//39 56//39 55//39
f 53//20 51//20 55//20 57//20
f 61//2 60//2 59//2 62//2
f 49//1 48//1 60//1 61//1
f 48//39 47//39 59//39 60//39
f 47//20 50//20 62//20 59//20
