# Blender v2.76 (sub 0) OBJ File: 'Tile_Selectable.blend'
# www.blender.org
o Tile_Selectable_Cube
v 0.500000 0.000000 -0.500000
v 0.500000 0.000000 0.500000
v -0.500000 0.000000 0.500000
v -0.500000 0.000000 -0.500000
v 0.500000 2.000000 -0.499999
v 0.499999 2.000000 0.500000
v -0.500000 2.000000 0.500000
v -0.500000 2.000000 -0.500000
vt 0.250035 0.000071
vt 0.250035 0.500000
vt 0.000071 0.500000
vt 0.000071 0.000071
vt 0.999929 0.000071
vt 0.999929 0.500000
vt 0.749965 0.500000
vt 0.749965 0.000071
vt 0.500000 0.500000
vt 0.500000 0.000071
vn 1.000000 0.000000 0.000000
vn -0.000000 -0.000000 1.000000
vn -1.000000 -0.000000 -0.000000
vn 0.000000 0.000000 -1.000000
s off
f 1/1/1 5/2/1 6/3/1 2/4/1
f 2/5/2 6/6/2 7/7/2 3/8/2
f 3/8/3 7/7/3 8/9/3 4/10/3
f 5/2/4 1/1/4 4/10/4 8/9/4
