# Blender v2.76 (sub 0) OBJ File: 'UI_Card.blend'
# www.blender.org
o UI_Card_Cube
v 1.199999 -1.450000 0.000000
v -1.199999 -1.450000 -0.000000
v 1.199999 1.450000 0.000000
v -1.199999 1.450000 -0.000000
v -0.950000 1.700000 -0.000000
v -0.950000 -1.700000 -0.000000
v 0.950000 1.700000 0.000000
v 0.950000 -1.700000 -0.000000
v -0.950000 1.450000 -0.050000
v -0.950000 1.450000 0.050000
v -0.950000 -1.450000 0.050000
v -0.950000 -1.450000 -0.050000
v 0.950001 1.450000 -0.050000
v 0.950000 1.450000 0.050000
v 0.950000 -1.450000 0.050000
v 0.950000 -1.450000 -0.050000
vn -0.196100 0.000000 0.980600
vn -0.000000 0.196100 0.980600
vn 0.000000 0.196100 -0.980600
vn 0.000000 0.000000 -1.000000
vn -0.000000 0.000000 1.000000
vn 0.196100 -0.000000 0.980600
vn -0.000000 -0.196100 0.980600
vn 0.192500 0.192500 -0.962300
vn 0.000000 -0.196100 -0.980600
vn 0.192500 -0.192500 -0.962300
vn 0.192500 -0.192400 0.962300
vn -0.192500 -0.192500 0.962300
vn -0.192500 0.192400 -0.962300
vn 0.196100 -0.000000 -0.980600
vn -0.196100 -0.000000 -0.980600
vn 0.192500 0.192400 0.962300
vn -0.192500 -0.192500 -0.962300
vn -0.192500 0.192400 0.962300
s off
f 11//1 10//1 4//1 2//1
f 14//2 7//2 5//2 10//2
f 7//3 13//3 9//3 5//3
f 13//4 16//4 12//4 9//4
f 15//5 14//5 10//5 11//5
f 1//6 3//6 14//6 15//6
f 8//7 15//7 11//7 6//7
f 3//8 13//8 7//8
f 16//9 8//9 6//9 12//9
f 1//10 8//10 16//10
f 1//11 15//11 8//11
f 6//12 11//12 2//12
f 5//13 9//13 4//13
f 3//14 1//14 16//14 13//14
f 9//15 12//15 2//15 4//15
f 3//16 7//16 14//16
f 12//17 6//17 2//17
f 10//18 5//18 4//18
