# Blender v2.79 (sub 0) OBJ File: 'UI_DrawerBtn.blend'
# www.blender.org
o UI_DrawerBtn_UI_DrawerBtn_Cube.003
v -1.672273 0.087585 -0.200000
v -1.500000 0.915371 -0.200000
v 1.500000 0.915371 -0.200000
v 1.672272 0.087585 -0.200000
v -1.562087 0.993762 -0.000000
v -1.778392 0.003284 -0.000000
v 1.778391 0.003284 -0.000000
v 1.562087 0.993762 -0.000000
vn 0.0000 0.0000 -1.0000
vn 0.0000 -0.0000 1.0000
vn 0.9054 0.1935 -0.3779
vn 0.0000 0.9310 -0.3649
vn -0.9054 0.1935 -0.3779
vn 0.0000 -0.9215 -0.3884
s 1
f 1//1 2//1 3//1 4//1
f 5//2 6//2 7//2 8//2
f 7//3 4//3 3//3 8//3
f 8//4 3//4 2//4 5//4
f 5//5 2//5 1//5 6//5
f 6//6 1//6 4//6 7//6
