# Blender v2.76 (sub 0) OBJ File: 'UI_Drawer.blend'
# www.blender.org
o UI_Drawer_Cube
v -11.999997 -4.300000 0.500000
v -12.419998 -3.870000 -0.500000
v -0.000002 -3.870000 -0.500000
v -0.000005 -4.300000 0.500000
v -12.000000 4.300000 0.499999
v -12.419995 4.730000 -0.500000
v -0.000001 4.730000 -0.500000
v -0.000003 4.300000 0.500000
v -11.999997 -4.300000 -0.000000
v -0.000004 -4.300000 0.000000
v -11.999997 4.300000 -0.000000
v -0.000002 4.300000 0.000000
v -11.399998 -4.300000 0.000000
v -11.399997 4.300000 -0.000000
v -11.819995 4.730000 -0.500000
v -11.400000 4.300000 0.500000
v -11.819999 -3.870000 -0.500000
v -11.399998 -4.300000 0.500000
v -12.000000 3.870000 0.500000
v -12.419995 4.300000 -0.500000
v -0.000001 4.300000 -0.500000
v -0.000004 3.870000 0.500000
v -11.999997 3.870000 -0.000000
v -11.999997 -3.870000 -0.000000
v -11.999997 -3.870000 0.500000
v -12.419998 -3.440000 -0.500000
v -0.000001 -3.440000 -0.500000
v -0.000005 -3.870000 0.500000
v -11.400000 3.870000 0.500000
v -11.819997 4.300000 -0.500000
v -11.819998 -3.440000 -0.500000
v -11.400000 -3.870000 0.500000
v -0.000001 -3.870000 0.000000
v -0.000001 3.870000 0.000000
v -11.399995 3.870000 -0.000000
v -11.399997 -3.870000 -0.000000
vn 0.000000 -0.758200 -0.652000
vn -0.000000 0.758200 0.652000
vn -0.765700 0.000000 0.643200
vn 0.000000 0.000000 -1.000000
vn -0.000000 0.000000 1.000000
vn -1.000000 -0.000000 -0.000000
vn 0.000000 1.000000 0.000000
vn 0.000000 -1.000000 0.000000
vn 1.000000 0.000000 0.000000
vn 0.765700 -0.000000 -0.643200
s off
f 13//1 17//1 3//1 10//1
f 14//2 12//2 7//2 15//2
f 23//3 11//3 6//3 20//3
f 30//4 15//4 7//4 21//4
f 32//5 18//5 4//5 28//5
f 19//6 5//6 11//6 23//6
f 16//7 8//7 12//7 14//7
f 18//8 13//8 10//8 4//8
f 34//9 12//9 8//9 22//9
f 32//5 28//5 22//5 29//5
f 30//1 21//1 34//1 35//1
f 23//3 20//3 26//3 24//3
f 2//4 26//4 31//4 17//4
f 16//5 29//5 22//5 8//5
f 25//5 1//5 18//5 32//5
f 5//7 16//7 14//7 11//7
f 25//5 32//5 29//5 19//5
f 26//4 20//4 30//4 31//4
f 5//5 19//5 29//5 16//5
f 9//3 24//3 26//3 2//3
f 17//4 31//4 27//4 3//4
f 1//6 25//6 24//6 9//6
f 1//8 9//8 13//8 18//8
f 25//6 19//6 23//6 24//6
f 20//4 6//4 15//4 30//4
f 11//2 14//2 15//2 6//2
f 9//1 2//1 17//1 13//1
f 36//4 35//4 34//4 33//4
f 27//2 31//2 36//2 33//2
f 21//9 7//9 12//9 34//9
f 31//10 30//10 35//10 36//10
f 34//9 22//9 28//9 33//9
f 10//9 33//9 28//9 4//9
f 3//9 27//9 33//9 10//9
