# Blender v2.79 (sub 0) OBJ File: 'UI_HudHeader.blend'
# www.blender.org
o UI_HudPanel_Cube
v 0.000000 1.400000 -0.100000
v 0.000000 1.200000 0.100000
v -10.800000 0.000000 0.100000
v -10.800000 0.200000 -0.100000
v 0.000000 4.000000 -0.099999
v -0.000001 4.000000 0.100001
v -10.800001 4.000000 0.100000
v -10.800000 4.000000 -0.100000
v -3.650000 0.200000 -0.100000
v -3.500000 0.000000 0.100000
v -3.650000 4.000000 -0.100000
v -3.500000 4.000000 0.100000
v -3.450001 1.400000 -0.100000
v -3.300000 1.200000 0.100000
v -3.450000 4.000000 -0.100000
v -3.300001 4.000000 0.100000
vn 0.0000 -0.7071 -0.7071
vn 0.0000 1.0000 0.0000
vn 1.0000 0.0000 0.0000
vn -0.0000 -0.0000 1.0000
vn -1.0000 -0.0000 -0.0000
vn 0.0000 0.0000 -1.0000
vn 0.7317 -0.1219 -0.6707
s off
f 9//1 10//1 3//1 4//1
f 11//2 8//2 7//2 12//2
f 1//3 5//3 6//3 2//3
f 10//4 12//4 7//4 3//4
f 3//5 7//5 8//5 4//5
f 11//6 9//6 4//6 8//6
f 15//6 13//6 9//6 11//6
f 14//4 16//4 12//4 10//4
f 15//2 11//2 12//2 16//2
f 13//7 14//7 10//7 9//7
f 1//1 2//1 14//1 13//1
f 5//2 15//2 16//2 6//2
f 2//4 6//4 16//4 14//4
f 5//6 1//6 13//6 15//6
