# Blender v2.76 (sub 0) OBJ File: 'UI_HalfHeart.blend'
# www.blender.org
o UI_FullHeart_Cube
v 0.344243 0.022912 -0.060000
v 0.343059 0.179755 -0.060000
v 0.213807 0.345182 -0.060000
v -0.000000 -0.319316 -0.060000
v 0.108209 0.346358 -0.060000
v -0.000000 0.219530 -0.060000
v 0.344243 0.022912 0.060000
v 0.343059 0.179755 0.060000
v 0.213807 0.345182 0.060000
v -0.000000 -0.319316 0.059999
v 0.108209 0.346358 0.060000
v 0.000000 0.219530 0.060000
v 0.400000 0.000931 -0.000000
v 0.399668 0.199444 0.000000
v 0.240399 0.398840 -0.000000
v -0.000000 -0.399145 -0.000000
v 0.083387 0.400855 -0.000000
v 0.000000 0.295367 -0.000000
v -0.000000 0.022912 0.059999
v -0.000000 0.179755 0.060000
v 0.000000 0.022912 -0.060000
v -0.000000 0.179755 -0.060000
vn 0.009000 0.742700 -0.669500
vn 0.517400 -0.518800 -0.680600
vn 0.000000 0.000000 -1.000000
vn -0.000000 -0.000000 1.000000
vn 0.730000 0.003100 0.683500
vn 0.009000 0.742700 0.669500
vn -0.587600 0.484600 -0.647900
vn 0.517400 -0.518800 0.680600
vn 0.730000 0.003100 -0.683500
vn -0.587600 0.484600 0.647900
vn 0.576400 0.455800 -0.678200
vn -1.000000 -0.000000 -0.000000
vn 0.576400 0.455800 0.678200
s off
f 3//1 5//1 17//1 15//1
f 4//2 1//2 13//2 16//2
f 3//3 2//3 6//3 5//3
f 6//3 2//3 22//3
f 22//3 2//3 1//3 21//3
f 1//3 4//3 21//3
f 9//4 11//4 12//4 8//4
f 8//5 7//5 13//5 14//5
f 11//6 9//6 15//6 17//6
f 5//7 6//7 18//7 17//7
f 7//8 10//8 16//8 13//8
f 1//9 2//9 14//9 13//9
f 12//10 11//10 17//10 18//10
f 2//11 3//11 15//11 14//11
f 4//12 16//12 10//12
f 9//13 8//13 14//13 15//13
f 10//4 7//4 19//4
f 8//4 12//4 20//4
f 20//4 19//4 7//4 8//4
f 20//12 22//12 4//12 10//12
f 20//12 12//12 6//12 22//12
f 18//12 6//12 12//12
