# Blender v2.76 (sub 0) OBJ File: 'UI_Panel.blend'
# www.blender.org
o UI_Panel_Cube
v 4.799998 -7.600000 0.100000
v -4.799998 -7.600000 0.100000
v 4.799994 7.600000 0.100000
v -4.800000 7.600000 0.100000
v 4.299999 -7.100000 -0.100000
v -4.300000 -7.100000 -0.100000
v 4.300001 7.100000 -0.100000
v -4.300001 7.100000 -0.100000
v 4.299999 -7.100000 0.000000
v -3.949999 -7.100000 0.000000
v 4.300001 6.750000 0.000000
v -3.950000 6.750000 0.000000
vn 0.000000 0.371400 -0.928500
vn -0.000000 -0.000000 1.000000
vn 0.000000 -0.274700 -0.961500
vn 0.371400 0.000000 -0.928500
vn 0.000000 -0.371400 -0.928500
vn -0.371400 -0.000000 -0.928500
vn 0.000000 0.000000 -1.000000
vn -1.000000 0.000000 0.000000
vn 0.274700 0.000000 -0.961500
vn 0.000000 1.000000 0.000000
s off
f 4//1 3//1 7//1 8//1
f 1//2 3//2 4//2 2//2
f 8//3 7//3 11//3 12//3
f 3//4 1//4 5//4 7//4
f 1//5 2//5 6//5 5//5
f 2//6 4//6 8//6 6//6
f 11//7 9//7 10//7 12//7
f 7//8 5//8 9//8 11//8
f 6//9 8//9 12//9 10//9
f 5//10 6//10 10//10 9//10
